<?xml version="1.0" encoding="utf-8"?>
<!-- Generator: Adobe Illustrator 18.0.0, SVG Export Plug-In . SVG Version: 6.00 Build 0)  -->
<!DOCTYPE svg PUBLIC "-//W3C//DTD SVG 1.1//EN" "http://www.w3.org/Graphics/SVG/1.1/DTD/svg11.dtd">
<svg version="1.1" xmlns="http://www.w3.org/2000/svg" xmlns:xlink="http://www.w3.org/1999/xlink" x="0px" y="0px"
	 viewBox="0 0 51 126" style="enable-background:new 0 0 51 126;" xml:space="preserve">
<g id="Layer_1">
</g>
<g id="Layer_2">
</g>
<g id="Layer_3">
	<g>
		<g>
			<path style="fill:#FFFFFF;" d="M37,33.8V29h1.6c1.7,0,2.4-1.1,2.4-2.8v-10c0-1.7-0.7-3.2-2.4-3.2h-2L39,3.9
				c0.2-0.9,0-1.9-0.5-2.7C37.9,0.5,37,0,36.1,0h-20c-0.9,0-1.8,0.5-2.4,1.3C13.2,2,13,2.9,13.2,3.8l2.4,9.2h-2
				C12,13,10,14.6,10,16.2v10c0,1.7,2,2.8,3.6,2.8H14v4.8C7,38.1,0,45.6,0,54.8v68.5c0,1.7,2,2.8,3.6,2.8h45c1.7,0,2.4-1.1,2.4-2.8
				V54.8C51,45.6,45,38.1,37,33.8z M32.2,6l-1.8,7h-8.7L20,6H32.2z M6,74.2c3-1.3,5.7-2.5,10.8-2.5c2.9,0,5.8,0.7,8.6,2.1
				c0.7,0.4,1.1,1.3,0.7,2c-0.4,0.7-1.2,1.1-2,0.7c-2.4-1.2-4.9-1.8-7.4-1.8c-6.5,0-8.8,2.2-10.8,3.2V74.2z M17.1,90.2
				c0-3.3,2.7-6,6-6s6,2.7,6,6s-2.7,6-6,6S17.1,93.6,17.1,90.2z M45,120H28.9c-1.7-2-2.8-4.5-2.8-7.4c0-6.4,4.8-11.4,11.2-11.4
				c3.1,0,5.7,1.3,7.7,3.3V120z M33.1,71.5c0.3-0.5,0.8-1,1.3-1.3c0.5-0.3,1.1-0.4,1.7-0.4c1.4,0,2.7,0.9,3.2,2.1
				c0.2,0.4,0.3,0.9,0.3,1.4c0,0.2,0,0.3,0,0.5c-0.1,0.5-0.3,1.1-0.6,1.5c-0.6,0.9-1.7,1.5-2.9,1.5c-1.9,0-3.5-1.6-3.5-3.5
				c0-0.1,0-0.2,0-0.3C32.7,72.4,32.8,71.9,33.1,71.5z M45,72.8c-1,0-1.8-0.1-2.7-0.3c-0.4-3.2-3-5.8-6.3-5.8
				c-1.9,0-3.5,0.8-4.7,2.1c-0.6-0.3-1.2-0.6-1.8-0.8c-4.4-2-8.8-3.9-13.3-3.9c-4.7,0-7.2,1.1-10.2,2.3V54.8
				c0-7.2,6.7-13.4,12.4-16.6c1-0.5,1.6-1.5,1.6-2.6v-9.3c0-1.7-0.7-3.2-2.4-3.2H16v-4h19v4h-0.4C33,23,31,24.6,31,26.2v9.3
				c0,1.1,0.6,2.1,1.6,2.6C38.3,41.3,45,47.6,45,54.8V72.8z"/>
		</g>
	</g>
</g>
</svg>
