<?xml version="1.0" encoding="utf-8"?>
<!-- Generator: Adobe Illustrator 18.0.0, SVG Export Plug-In . SVG Version: 6.00 Build 0)  -->
<!DOCTYPE svg PUBLIC "-//W3C//DTD SVG 1.1//EN" "http://www.w3.org/Graphics/SVG/1.1/DTD/svg11.dtd">
<svg version="1.1" xmlns="http://www.w3.org/2000/svg" xmlns:xlink="http://www.w3.org/1999/xlink" x="0px" y="0px"
	 viewBox="0 0 100 127" style="enable-background:new 0 0 100 127;" xml:space="preserve">
<g id="Layer_1">
</g>
<g id="Layer_2">
</g>
<g id="Layer_3">
	<g>
		<g>
			<path style="fill:#FFFFFF;" d="M98.3,113.5C87.8,88.6,77.2,63.6,66.7,38.7C61.8,27.2,57,15.8,52.1,4.3c-0.4-0.9-0.7-2.1-1.5-2.7
				c-2.3-1.8-4.3,0.1-5.2,2.1c-2,4.7-3.9,9.5-5.9,14.2c-10.5,25.5-21,51-31.5,76.5c-1.8,4.5-3.7,8.9-5.5,13.4
				c-0.8,1.9-3.1,5.5-2.4,7.6c0.7,2.3,4.4,3.1,6.3,3.8c3.6,1.3,7.2,2.5,10.9,3.5c14.3,3.9,29.2,5.1,43.9,3.6
				c7.1-0.7,14.1-2,20.9-3.9c3.6-1,7.2-2.2,10.7-3.5C95.1,118.1,99.7,117,98.3,113.5z M71.8,68.4c2.1,0.8,5.4,9.9,6.1,11.7
				c0,0-0.1-0.2-0.2-0.2c-2.2,8-13.2,10.8-18.1,3.2C54.4,75.1,62.9,64.8,71.8,68.4C72.1,68.6,66.7,66.3,71.8,68.4z M45.6,29.5
				c1.4-3.4,4.1-6.1,7.5-7.5c3.6,8.6,7.2,17.2,10.9,25.8C52.6,52.5,41,40.8,45.6,29.5C47.1,26,42.7,36.7,45.6,29.5z M34,47.3
				c12.8-0.9,22.5,12.1,18.2,24.1C48,83,33.1,87,23.6,79c-1-0.9-2.2-1.3-1.6-2.6c0.4-1,0.8-2,1.2-2.9c1.4-3.5,2.9-7,4.3-10.5
				C29.7,57.8,31.8,52.5,34,47.3z M18.1,91.6c11,3.9,22.6,5.8,34.2,5.3c6.6-0.3,13.2-1.2,19.7-2.8c0.9-0.2,10.2-3.1,10.1-3.2
				c0.6,1.3,1.1,2.6,1.7,4c0.5,1.3,1.1,2.6,1.6,3.8c0.4,0.9-4.7,2.1-5.8,2.5c-7.3,2.3-14.8,3.8-22.3,4.4c-15.2,1.3-30.5-1-44.7-6.5
				c0.5-1.3,1-2.5,1.6-3.8c0.4-1.1,0.9-2.2,1.3-3.3C16.2,90.5,16.2,90.9,18.1,91.6z M49,121c-14.4,0-28.7-2.7-42.1-7.9
				c0.8-2,1.6-3.9,2.4-5.9c0.3-0.8,0.7-1.6,1-2.4c0.1-0.2,5.3,1.8,5.9,2c10.5,3.4,21.5,5.1,32.6,5.1c11,0,21.9-1.7,32.3-5
				c1.2-0.4,6.2-2.7,6.9-2.2c0.4,0.2,0.7,1.6,0.8,2c0.9,2.1,1.7,4.2,2.6,6.3C78.1,118.3,63.6,121,49,121z"/>
		</g>
	</g>
</g>
</svg>
