<?xml version="1.0" encoding="utf-8"?>
<!-- Generator: Adobe Illustrator 18.0.0, SVG Export Plug-In . SVG Version: 6.00 Build 0)  -->
<!DOCTYPE svg PUBLIC "-//W3C//DTD SVG 1.1//EN" "http://www.w3.org/Graphics/SVG/1.1/DTD/svg11.dtd">
<svg version="1.1" xmlns="http://www.w3.org/2000/svg" xmlns:xlink="http://www.w3.org/1999/xlink" x="0px" y="0px"
	 viewBox="0 0 128 120" style="enable-background:new 0 0 128 120;" xml:space="preserve">
<g id="Layer_1">
</g>
<g id="Layer_2">
</g>
<g id="Layer_3">
	<g>
		<g>
			<path style="fill:#FFFFFF;" d="M100.6,64c-1.7,1.3-3.8,2-6,2s-4.3-0.7-6-2h-26c-1.1,0-2.2-0.6-2.7-1.6c-0.1-0.1-0.1-0.2-0.2-0.3
				c-0.1-0.2-0.1-0.3-0.1-0.5c-0.2-1,0.1-2,0.8-2.7l1.6-1.6c-1.5-1.3-2.4-3.2-2.4-5.3c0-3.9,3.1-7,7-7c2.1,0,4,0.9,5.3,2.4L93,26.3
				c-8.4-8.1-19.8-13.2-32.4-13.2c-25.6,0-46.4,20.8-46.4,46.4s20.8,46.4,46.4,46.4c24.1,0,43.9-18.4,46.2-41.9H100.6z M75.6,17
				c3.9,0,7,3.1,7,7s-3.1,7-7,7s-7-3.1-7-7S71.7,17,75.6,17z M30.1,73c-3,0-5.5-2.5-5.5-5.5S27,62,30.1,62s5.5,2.5,5.5,5.5
				S33.1,73,30.1,73z M24.6,37c0-6.1,4.9-11,11-11s11,4.9,11,11s-4.9,11-11,11S24.6,43.1,24.6,37z M48.6,102c-6.6,0-12-5.4-12-12
				s5.4-12,12-12s12,5.4,12,12S55.2,102,48.6,102z M85.1,95c-4.7,0-8.5-3.8-8.5-8.5s3.8-8.5,8.5-8.5s8.5,3.8,8.5,8.5
				S89.8,95,85.1,95z"/>
			<path style="fill:#FFFFFF;" d="M114.4,64c-2.1,27.9-25.4,50-53.9,50c-29.8,0-54-24.2-54-54c0-29.8,24.2-54,54-54
				C75.1,6,88.3,11.8,98,21.2l4.3-4.3C91.5,6.5,76.8,0,60.5,0c-33.1,0-60,26.9-60,60s26.9,60,60,60c31.8,0,57.8-24.7,59.9-56H114.4z
				"/>
			<path style="fill:#FFFFFF;" d="M111.4,16.4l-4.3,4.3c8.6,10.2,13.9,23.1,14.4,37.4h6C127,42.1,121,27.6,111.4,16.4z"/>
			<path style="fill:#FFFFFF;" d="M113,57.5c0,0.2,0,0.3,0,0.5h-3.2c0.5-1.2,0.8-2.6,0.8-4c0-5.5-4.5-10-10-10s-10,4.5-10,10
				c0,1.4,0.3,2.8,0.8,4H70.6l1-1.1c0.3,0,0.6,0.1,0.9,0.1c3.9,0,7-3.1,7-7c0-0.4,0-0.8-0.1-1.1l21.7-22.3
				C108.5,34.8,113,45.6,113,57.5z"/>
		</g>
	</g>
</g>
</svg>
