<?xml version="1.0" encoding="utf-8"?>
<!-- Generator: Adobe Illustrator 18.0.0, SVG Export Plug-In . SVG Version: 6.00 Build 0)  -->
<!DOCTYPE svg PUBLIC "-//W3C//DTD SVG 1.1//EN" "http://www.w3.org/Graphics/SVG/1.1/DTD/svg11.dtd">
<svg version="1.1" xmlns="http://www.w3.org/2000/svg" xmlns:xlink="http://www.w3.org/1999/xlink" x="0px" y="0px"
	 viewBox="0 0 106 108" style="enable-background:new 0 0 106 108;" xml:space="preserve">
<g id="Layer_1">
</g>
<g id="Layer_2">
</g>
<g id="Layer_3">
	<g>
		<g>
			<g>
				<g>
					<path style="fill:#FFFFFF;" d="M60,53v55h-9V84c0-0.8-0.7-1.5-1.5-1.5S48,83.2,48,84v24h-2V53h9v7c0,0.8,0.7,1.5,1.5,1.5
						S58,60.8,58,60v-7H60z"/>
				</g>
			</g>
			<g>
				<g>
					<rect x="46" y="27" style="fill:#FFFFFF;" width="14" height="20"/>
				</g>
			</g>
			<g>
				<g>
					<g>
						<path style="fill:#FFFFFF;" d="M66,53h31v52c0,1.7-1.3,3-3,3H66V53z"/>
						<path style="fill:#FFFFFF;" d="M106,24v20c0,1.7-1.3,3-3,3H66v-6h34V27H66v-9h9c0.8,0,1.5-0.7,1.5-1.5S75.8,15,75,15h-9v-0.4
							c0-0.6-0.2-1.3-0.6-1.8c-0.2-0.3-0.5-0.6-0.9-0.8l-1.9-1.1L82.6,0.4c0.9-0.5,2-0.4,2.9,0.1C86.4,1,87,2,87,3v18h16
							C104.7,21,106,22.3,106,24z"/>
					</g>
				</g>
			</g>
			<g>
				<g>
					<g>
						<path style="fill:#FFFFFF;" d="M10,53h30v55H13c-1.7,0-3-1.3-3-3V53z"/>
						<path style="fill:#FFFFFF;" d="M43,11.1L41.5,12c-0.4,0.3-0.8,0.6-1.1,1.1c-0.3,0.4-0.4,1-0.4,1.5V15h-9
							c-0.8,0-1.5,0.7-1.5,1.5S30.2,18,31,18h9v9H6v14h34v6H3c-1.7,0-3-1.3-3-3V24c0-1.7,1.3-3,3-3h17V3C20,2,20.6,1,21.5,0.4
							c0.9-0.5,2.1-0.5,3,0L43,11.1z"/>
					</g>
				</g>
			</g>
			<g>
				<g>
					<polygon style="fill:#FFFFFF;" points="53,12 60,16.3 60,21 46,21 46,16.3 					"/>
				</g>
			</g>
		</g>
	</g>
</g>
</svg>
