<?xml version="1.0" encoding="utf-8"?>
<!-- Generator: Adobe Illustrator 18.0.0, SVG Export Plug-In . SVG Version: 6.00 Build 0)  -->
<!DOCTYPE svg PUBLIC "-//W3C//DTD SVG 1.1//EN" "http://www.w3.org/Graphics/SVG/1.1/DTD/svg11.dtd">
<svg version="1.1" xmlns="http://www.w3.org/2000/svg" xmlns:xlink="http://www.w3.org/1999/xlink" x="0px" y="0px"
	 viewBox="0 0 84.9 135" style="enable-background:new 0 0 84.9 135;" xml:space="preserve">
<g id="Layer_1">
</g>
<g id="Layer_2">
</g>
<g id="Layer_3">
	<g>
		<g>
			<path d="M84,1.5c-0.9-1.4-2.7-1.9-4.1-1L61.9,11.2c-0.7,0.4-1.2,1.1-1.4,1.9L56.7,30H39.8c0-5.9-2.2-11.3-6.2-15.4
				C25.1,6.2,10.7,6.4,2,15.1l-0.2,0.2c-0.4,0.4-1.3,1.3-1.8,1.8l3.8,3.8c0,0,0.1-0.1,0.1-0.1l11.6,11.6c0,0-0.3,0.1-0.3,0.1
				c0,0-0.4,0.1-0.4,0.1v4.7c0,13.9,3,27.8,9,40.4v54.5c0,1.7,2.1,2.9,3.7,2.9h35.9c1.7,0,2.4-1.2,2.4-2.9V77.6
				c6-12.6,9-26.5,9-40.4v-4.7c0-1.7-0.8-2.6-2.4-2.6h-9.6l3.3-14.3L83,5.6C84.4,4.7,84.8,2.9,84,1.5z M6.1,18.6c2-2,4.5-3.3,7-4.1
				l1,12.1L6.1,18.6z M16.1,13.9c4.2-0.5,8.6,0.5,12,3.1L17.4,29.4L16.1,13.9z M30.3,19c2.7,3,4.1,6.8,4.1,11H20.8L30.3,19z
				 M33.3,36c-0.8,2.3-2.1,4.4-3.8,6.1L23.5,36H33.3z M22.5,50c0-0.1,0-0.3-0.1-0.4c-0.5-3.7-0.9-7.4-1-11.2c0-0.1,0-0.1,0-0.2
				l10.3,9.6c0.7-0.7,1.2-1.5,1.5-1.9c2.7-2.8,4.6-6.2,5.7-10h16.3L52,50H22.5z M49.1,55.9c0,1.5-1.2,2.7-2.7,2.7
				c-1.5,0-2.7-1.2-2.7-2.7c0-1.5,1.2-2.7,2.7-2.7C47.9,53.2,49.1,54.4,49.1,55.9z M33,78.3c0-2.5,2-4.5,4.5-4.5
				c2.5,0,4.5,2,4.5,4.5s-2,4.5-4.5,4.5C35,82.8,33,80.8,33,78.3z M48.2,124c-2.5,0-4.9-1.1-6.5-2.8c-1.5-1.6-2.5-3.8-2.5-6.2
				c0-3.9,2.4-7.1,5.9-8.4c1-0.4,2-0.5,3.1-0.5c5,0,9,4,9,9C57.2,120,53.2,124,48.2,124z M68.9,36v1.3c0,4.1,0,8.2-0.6,12.3
				c0,0.3,0.1,0.4,0.1,0.4H58.2l3.2-14H68.9z"/>
		</g>
	</g>
</g>
</svg>
