<?xml version="1.0" encoding="utf-8"?>
<!-- Generator: Adobe Illustrator 18.0.0, SVG Export Plug-In . SVG Version: 6.00 Build 0)  -->
<!DOCTYPE svg PUBLIC "-//W3C//DTD SVG 1.1//EN" "http://www.w3.org/Graphics/SVG/1.1/DTD/svg11.dtd">
<svg version="1.1" xmlns="http://www.w3.org/2000/svg" xmlns:xlink="http://www.w3.org/1999/xlink" x="0px" y="0px"
	 viewBox="0 0 146 125" style="enable-background:new 0 0 146 125;" xml:space="preserve">
<g id="Layer_1">
</g>
<g id="Layer_2">
</g>
<g id="Layer_3">
	<g>
		<g>
			<path d="M145.3,8.2c-5.6-8-11-8-12.2-7.9c-7.4-0.3-18.2,6.1-22.8,10.7L90,30.7c0.3,0.2,0.2,0.2-0.1,0c-3.8-2.9-8.4-4.4-13.2-4.4
				c-7,0-13.5,3.3-17.7,8.9l-57,76.9c-2.3,3.1-2,7.5,0.8,10.2c1.5,1.5,3.4,2.3,5.5,2.3c1.7,0,3.3-0.5,4.7-1.5L90,66
				c5.2-3.8,8.4-9.7,8.8-16.1c0.4-5.7-1.4-11.3-5-15.6l2.2-2.4c3.7-3.7,11-7.6,15.1-5.6c0.7,0.4,1.6,0.1,2-0.7
				c0.4-0.7,0.1-1.6-0.7-2c-3.6-1.8-8.3-0.6-12.3,1.6l4.9-5c3.2-3.1,10.6-3.7,16.5-4.1c1.2-0.1,2.4-0.2,3.5-0.3
				c9.9-0.9,19.2-5.4,19.6-5.6s0.7-0.5,0.8-1C145.6,9,145.5,8.5,145.3,8.2z M92.9,49.5c-0.3,4.7-2.7,9-6.5,11.7L75,69.7l-6-6
				c-0.6-0.6-1.5-0.6-2.1,0c-0.6,0.6-0.6,1.5,0,2.1l5.7,5.7L46.2,91.1l-4.6-4.6c-0.6-0.6-1.5-0.6-2.1,0c-0.6,0.6-0.6,1.5,0,2.1
				l4.3,4.3L9.5,118.3c-0.4,0.3-0.8,0.4-1.1,0.4c-0.5,0-1-0.2-1.3-0.5c-0.7-0.7-0.7-1.7-0.2-2.5l13.5-18.2l4.6,4.6
				c0.3,0.3,0.7,0.4,1,0.4s0.8-0.1,1-0.4c0.6-0.6,0.6-1.5,0-2.1L22.2,95L43,67l5.4,5.4c0.3,0.3,0.7,0.4,1,0.4s0.8-0.1,1-0.4
				c0.6-0.6,0.6-1.5,0-2.1l-5.7-5.7l19.1-25.8c3.1-4.1,7.8-6.5,12.9-6.5c4.3,0,8.3,1.7,11.4,4.7C91.5,40.3,93.2,44.9,92.9,49.5z"/>
		</g>
		<g>
			<path d="M78,47.3c-0.3,0.3-0.7,0.4-1,0.4c-0.4,0-0.8-0.1-1.1-0.4l-6.6-6.6c-0.6-0.6-0.6-1.5,0-2.1c0.6-0.6,1.5-0.6,2.1,0l6.6,6.6
				C78.5,45.8,78.5,46.7,78,47.3z"/>
		</g>
	</g>
</g>
</svg>
