<?xml version="1.0" encoding="utf-8"?>
<!-- Generator: Adobe Illustrator 18.0.0, SVG Export Plug-In . SVG Version: 6.00 Build 0)  -->
<!DOCTYPE svg PUBLIC "-//W3C//DTD SVG 1.1//EN" "http://www.w3.org/Graphics/SVG/1.1/DTD/svg11.dtd">
<svg version="1.1" xmlns="http://www.w3.org/2000/svg" xmlns:xlink="http://www.w3.org/1999/xlink" x="0px" y="0px"
	 viewBox="0 0 123.9 125" style="enable-background:new 0 0 123.9 125;" xml:space="preserve">
<g id="Layer_1">
</g>
<g id="Layer_2">
</g>
<g id="Layer_3">
	<g>
		<g>
			<path d="M31,29.6c-5.1,0-9.3-4.2-9.3-9.3S25.9,11,31,11s9.3,4.2,9.3,9.3S36.1,29.6,31,29.6z M31,16.9c-1.9,0-3.4,1.5-3.4,3.4
				s1.5,3.4,3.4,3.4c1.9,0,3.4-1.5,3.4-3.4S32.9,16.9,31,16.9z"/>
		</g>
		<g>
			<path d="M123.9,85c-0.3-1.3-1.5-2-2.9-2h0l-18.6-0.2l0-5.4c0-13.2-3.3-25.8-9.4-37l8.4-4c0.7-0.3,1.2-0.9,1.5-1.7
				c0.3-0.7,0.2-1.5-0.1-2.2l-4.3-9c-4.6-9.6-16.2-13.7-25.8-9.1l-1.8,0.9C57.7,5.7,41.7,0.5,25,0.5l-21.7,0c-1.6,0-3,1.3-3,3
				l0,21.1C0.4,41,5.5,56.4,14.3,69l-1,2.1c-2.3,4.6-2.8,9.9-1.1,14.8c1.6,4.9,5,8.9,9.6,11.3l8.9,4.5c0.4,0.2,0.9,0.3,1.3,0.3
				c0.3,0,0.6,0,0.9-0.1c0.7-0.2,1.3-0.8,1.7-1.5l4.3-8.5c11.5,6.8,24.9,10.7,39.1,10.7l3.5-0.1l0.1,19.4c0,1.4,0.9,2.5,2.3,2.9
				c0.2,0.1,0.5,0.1,0.7,0.1c1.1,0,2.1-0.6,2.6-1.5l12.1-22.9l23.1-12.2C123.6,87.6,124.2,86.4,123.9,85z M91.8,52.8
				c-4,1.6-8.5,1.7-12.6,0.3c0,0,0,0,0,0c3.4-3.8,5.6-8.8,5.6-14.3C87.8,43.1,90,47.9,91.8,52.8z M79.7,32c0.4,0.5,0.9,1,1.3,1.5
				c0,0.1,0,0.1,0,0.2c0.5,1.6,0.7,3.3,0.7,5c0,10.1-8.2,18.3-18.3,18.3c-2.2,0-4.3-0.4-6.4-1.1c-0.1,0-0.2-0.1-0.3-0.1
				c2.6-3.5,4.1-7.9,4.1-12.6c0-2.3-0.3-4.5-1-6.6c1.8,0.5,3.8,0.8,5.7,0.8c5.2,0,10.2-1.9,14-5.3C79.6,32.1,79.6,32.1,79.7,32z
				 M57.8,59.3c1.8,0.5,3.7,0.8,5.6,0.8c4.8,0,9.6-1.6,12.6-4.2c0,0.1,0.1,0.1,0.1,0.2c1,2.2,1.5,4.4,1.5,6.8
				c0,10.1-8.1,18.3-18.2,18.3c-2.1,0-4.1-0.3-6-1c3.4-3.8,5.6-8.8,5.6-14.3C58.8,63.5,58.5,61.3,57.8,59.3z M77,55.1
				C77,55.1,77,55.1,77,55.1L77,55.1C77,55.1,77,55.1,77,55.1z M38.1,39.6c1.8,0.5,3.8,0.8,5.7,0.8c4.8,0,9.1-1.6,12.7-4.2
				c0.9,2.2,1.4,4.6,1.4,7c0,10.1-8.2,18.3-18.3,18.3c-2.1,0-4.1-0.3-6-1c3.5-3.8,5.6-8.8,5.6-14.3C39.2,43.9,38.8,41.7,38.1,39.6z
				 M77.7,29.8c-0.1,0-0.1,0.1-0.1,0.1c-3.3,2.9-7.6,4.5-12.1,4.5c-2.1,0-4.1-0.3-6-1c3.5-3.8,5.6-8.8,5.6-14.3c0-0.1,0-0.2,0-0.3
				C69.7,22,74,25.7,77.7,29.8z M5.9,24.5V6.4l18.9,0c13.6,0,26.3,3.8,37.2,10.4c0.1,0.8,0.2,1.5,0.2,2.3c0,10.1-8.2,18.3-18.3,18.3
				c-2.2,0-4.3-0.4-6.4-1.2c-0.3-0.1-1.9-0.3-2.4-0.1c-0.7,0.4-1,1.3-0.7,2c1.2,2.5,1.8,5.2,1.8,8c0,10-8.1,18.2-18.2,18.3
				C10.4,53,5.9,39.3,5.9,24.5z M20.1,67.3c4.3-0.4,8.2-2.2,11.4-4.8c0.2,0.3,0.4,0.5,0.7,0.6c0.3,0.1,0.9,0.9,1,1.2
				c1.2,2.5,1.8,5.2,1.8,8c0,2.9-0.7,5.8-2,8.4C28.2,76.8,23.8,72.3,20.1,67.3z M35.4,82.5C35.4,82.5,35.4,82.5,35.4,82.5
				C35.4,82.5,35.4,82.5,35.4,82.5c1.7-3.1,2.6-6.6,2.6-10.2c0-2.8-0.5-5.5-1.6-8.1c1.1,0.2,2.1,0.3,3.2,0.3
				c5.7,0,10.9-2.3,14.7-5.9l0,0c1,2.3,1.5,4.7,1.5,7.2c0,10-8.1,18.3-18.2,18.3C36.9,84,36.2,83,35.4,82.5
				C35.4,82.5,35.4,82.5,35.4,82.5 M54.7,92.5c-4.5-1.5-8.8-3.5-12.9-5.9c3.5-0.7,6.7-2.3,9.3-4.5c0.2,0.3,0.4,0.5,0.7,0.6
				c0.3,0.1,0.9,0.9,1,1.2c1.2,2.5,1.8,5.2,1.8,8C54.7,92.1,54.7,92.3,54.7,92.5z M72,96.1c-5-0.4-9.8-1.3-14.4-2.7
				c0-0.5,0.1-1,0.1-1.5c0-2.8-0.5-5.5-1.6-8.1c1,0.2,2.1,0.3,3.2,0.3c5.7,0,10.9-2.3,14.7-5.9c1,2.3,1.5,4.7,1.5,7.2
				C75.4,89.3,74.2,93,72,96.1z M83.1,76.6c-2.2,0-4.4-0.4-6.4-1.1c-0.1,0-0.2-0.1-0.3-0.1c2.6-3.5,4.1-7.9,4.1-12.6
				c0-2.2-0.3-4.4-1-6.5c1.8,0.5,3.7,0.9,5.7,0.9c2.6,0,5.2-0.2,7.7-1.2h0c0,0,0.1-0.1,0.1-0.1c1.6,4.9,2.6,10,3.1,15.3
				C92.6,74.7,88,76.6,83.1,76.6z"/>
		</g>
	</g>
</g>
</svg>
