<?xml version="1.0" encoding="utf-8"?>
<!-- Generator: Adobe Illustrator 18.0.0, SVG Export Plug-In . SVG Version: 6.00 Build 0)  -->
<!DOCTYPE svg PUBLIC "-//W3C//DTD SVG 1.1//EN" "http://www.w3.org/Graphics/SVG/1.1/DTD/svg11.dtd">
<svg version="1.1" xmlns="http://www.w3.org/2000/svg" xmlns:xlink="http://www.w3.org/1999/xlink" x="0px" y="0px"
	 viewBox="0 0 120 123" style="enable-background:new 0 0 120 123;" xml:space="preserve">
<g id="Layer_1">
</g>
<g id="Layer_2">
</g>
<g id="Layer_3">
	<g>
		<g>
			<g>
				<line  x1="48.9" y1="17.8" x2="45.8" y2="20.1"/>
			</g>
			<g>
				<line  x1="46.1" y1="13.8" x2="42.3" y2="13.2"/>
				<path  d="M47.3,13.9c-0.1,0.6-0.6,1-1.2,1c-0.1,0-0.1,0-0.2,0l-3.9-0.5c-0.6-0.1-1.1-0.7-1-1.3
					c0.1-0.6,0.7-1.1,1.3-1l3.9,0.6C47,12.7,47.4,13.3,47.3,13.9z"/>
			</g>
		</g>
		<g>
			<path  d="M116.4,63c0.4-1.3,0.6-2.6,0.6-4c0-5-2.6-9.6-6.9-12.1c0-0.4,0-0.8,0-1.1c0-9.9-8-18-18-18
				c-1,0-1.9,0.1-2.8,0.2c0.6-1.5,1-3.2,1-4.9c0-7.3-6-13.3-13.3-13.3c-3.1,0-6.1,1.1-8.5,3c-1.4-0.9-3.1-1.3-4.8-1.3
				c-3.8,0-7.1,2.3-8.5,5.5L42.9,0.7l-1.3,1C35.5,6.6,33.5,15,36.5,22c0,0,0,0,0,0c0,0,0,0,0,0c-2.3-1.2-4.8-1.9-7.4-1.9
				c-8.7,0-15.8,7.1-15.8,15.8c0,0.4,0,0.7,0,1.1c-7.5,2-12.9,8.9-12.9,16.9C0.5,57,1.4,60.2,3,63H0c0,33,26.9,60,60,60s60-27,60-60
				H116.4z M63.8,16.7c1.2,0,2.3,0.5,3.1,1.4l2,2.2l1.9-2.3c1.6-1.9,3.8-3,6.3-3c4.5,0,8.1,3.6,8.1,8.1c0,4.5-3.6,8.1-8.1,8.1
				c-1.3,0-2.4,0.8-3.7,1.9c-0.2-0.4-0.5-0.8-0.7-1.2l5.6-8c0.5-0.7,0.3-1.6-0.4-2.1c-0.7-0.5-1.6-0.3-2.1,0.4l-5,7.2
				c-2.9-3.6-6.8-6.3-11.2-7.8c0-0.2-0.1-0.5-0.1-0.7C59.5,18.5,61.4,16.7,63.8,16.7z M42.4,5.2l11.2,14.9C53.1,20,52.6,20,52.2,20
				c0.1,0,0.1,0,0.2,0c0,0,0,0,0,0c0.1,0,0.1,0.1,0.2,0.1C52.5,20,52.3,20,52.2,20h-0.4c0,0,0,0.1,0,0.1c0,0-0.1,0-0.1,0
				c-0.1,0-0.2-0.1-0.3-0.1h0c-1.4,0-2.8,0-4.1,1h0c-0.2,0-0.5,0-0.7,0l3-2.3c0.5-0.4,0.6-1.1,0.2-1.6c-0.4-0.5-1.1-0.6-1.6-0.2
				l-3.1,2.3c-0.5,0.4-0.6,1.1-0.2,1.7c0.1,0.1,0.2,0.3,0.4,0.3c-0.1,0-0.2,0-0.3,0.1c-1.6,0.4-3.1,0.8-4.5,1.5c0,0,0-0.1-0.1-0.1
				C36.9,17.1,37.8,9.8,42.4,5.2z M53,20.9C53,20.9,53,20.9,53,20.9C53,20.9,53,20.9,53,20.9C53,20.9,53,20.9,53,20.9z M52.7,20.2
				c0,0-0.1-0.1-0.1-0.1C52.6,20.1,52.6,20.1,52.7,20.2C52.7,20.2,52.7,20.2,52.7,20.2z M51.5,53.2l0.9-9.6c0.1-0.8-0.5-1.5-1.3-1.6
				c-0.8-0.1-1.5,0.5-1.6,1.4l-1.3,14.2l0,0.1l-0.1-0.1l-2.8-4.3c0,0,0,0,0,0l-0.4-0.6l-9.4-14.3c-0.5-0.7-1.4-0.9-2.1-0.4
				c-0.7,0.5-0.9,1.4-0.4,2.1l7.7,11.8l-8.5-1.3c-0.8-0.1-1.6,0.4-1.7,1.3c-0.1,0.8,0.4,1.6,1.3,1.7L43,55.2l4.7,7.1l0.4,0.6
				l0.1,0.1H9c-2.1-2.7-3.5-5.9-3.5-9.1c0-6.3,4.7-11.7,11-12.4l2.8-0.3l-0.7-2.7c-0.2-0.8-0.3-1.7-0.3-2.5
				c0-5.9,4.8-10.8,10.8-10.8c2.9,0,5.6,1.1,7.7,3.2l1.5,1.5l1.7-1.2c0.3-0.2,0.6-0.4,0.9-0.6c0.3-0.1,0.5-0.3,0.7-0.4
				c0.7-0.4,1.5-0.8,2.3-1.1c0,0,0,0,0,0c2-0.8,4.1-1.5,6.3-1.5c0,0,0,0,0,0c0,0,0,0,0,0h1.2c0,0,0,0,0,0h1.2c0.2,0,0.4,0,0.6,0
				c0.8,0.1,1.6,0.2,2.3,0.4c0.8,0.2,1.6,0.5,2.4,0.6l0.1,0.2l0,0l0.1,0.1c0,0,0,0,0,0c0,0,0,0,0,0c1.6,0.6,3.2,1.4,4.6,2.4
				c0,0,0,0,0,0c0,0,0.1,0,0.1,0.1c1.3,0.9,2.5,2,3.6,3.3c0.7,0.8,1.4,1.7,1.9,2.6c0.2,0.3,0.4,0.6,0.5,0.9c-1.6,0.8-2.9,2-3.8,3.5
				c-0.8,1.4-1.3,3.1-1.3,4.8v0.1C58.3,44.8,53.7,48.3,51.5,53.2z M109.4,86c-7.8,16.8-23.4,28.4-41.8,31c-0.1,0-0.1,0-0.2,0
				c-0.7,0-1.4-0.5-1.5-1.3c-0.1-0.8,0.5-1.6,1.3-1.7c17.4-2.5,32.2-13.4,39.5-29.3c0.4-0.8,1.2-1.1,2-0.7S109.7,85.2,109.4,86z
				 M110.9,63H89.3l5.2-17.6c0.2-0.8-0.2-1.6-1-1.9c-0.8-0.2-1.6,0.2-1.9,1L86.1,63H56c-0.4-1.1-0.6-2.3-0.6-3.5
				c0-5.7,4.6-10.3,10.3-10.3c0.4,0,0.7,0,1.1,0.1l4.4,0.5l-1.7-4c-0.2-0.5-0.3-1.1-0.3-1.6c0-1.4,0.7-2.6,1.7-3.4
				c0.1-0.1,0.1-0.1,0.2-0.1c0.6-0.4,1.4-0.7,2.2-0.7c0.1,0,0.1,0,0.2,0c1.2,0,2.2,0.4,3,1.3l2.6,2.6l1.6-3.3c0,0,0,0,0-0.1
				c2.1-4.5,6.6-7.3,11.6-7.3c7.1,0,12.8,5.8,12.8,12.8c0,0.7-0.1,1.5-0.2,2.1l-0.4,2l1.9,0.8c3.3,1.4,5.5,4.6,5.5,8.3
				C111.8,60.5,111.5,61.8,110.9,63z"/>
		</g>
		<g>
			<line  x1="77" y1="23" x2="70" y2="33"/>
			<path  d="M53,20.9C53,20.9,53,20.9,53,20.9C53,20.9,53,20.9,53,20.9C53,20.9,53,20.9,53,20.9z M58.1,26.2
				L58.1,26.2L58,26c-0.8,0-1.6-0.4-2.4-0.6c-0.8-0.2-1.5-0.3-2.3-0.4c0.8,0.1,1.6,0.3,2.3,0.5c0.9,0.2,1.8,0.5,2.7,0.8L58.1,26.2z
				 M53,20.9C53,20.9,53,20.9,53,20.9C53,20.9,53,20.9,53,20.9C53,20.9,53,20.9,53,20.9z M58.1,26.2L58.1,26.2L58,26
				c-0.8,0-1.6-0.4-2.4-0.6c-0.8-0.2-1.5-0.3-2.3-0.4c0.8,0.1,1.6,0.3,2.3,0.5c0.9,0.2,1.8,0.5,2.7,0.8L58.1,26.2z M53,20.9
				C53,20.9,53,20.9,53,20.9C53,20.9,53,20.9,53,20.9C53,20.9,53,20.9,53,20.9z"/>
		</g>
	</g>
</g>
</svg>
