<?xml version="1.0" encoding="utf-8"?>
<!-- Generator: Adobe Illustrator 18.0.0, SVG Export Plug-In . SVG Version: 6.00 Build 0)  -->
<!DOCTYPE svg PUBLIC "-//W3C//DTD SVG 1.1//EN" "http://www.w3.org/Graphics/SVG/1.1/DTD/svg11.dtd">
<svg version="1.1" xmlns="http://www.w3.org/2000/svg" xmlns:xlink="http://www.w3.org/1999/xlink" x="0px" y="0px"
	 viewBox="0 0 62.9 117" style="enable-background:new 0 0 62.9 117;" xml:space="preserve">
<g id="Layer_1">
</g>
<g id="Layer_2">
</g>
<g id="Layer_3">
	<g>
		<g>
			<g>
				<path d="M54.2,111.1l-19.3-5.3V64.3c16-1.9,27.9-18.5,27.9-40c0-8-1.7-16.2-4.6-22.6C57.7,0.7,56.5,0,55.3,0H7
					C5.8,0,4.7,0.7,4.3,1.8C1.5,8.1,0,16.6,0,24.5c0,21.6,11.8,38.2,28.8,39.9v41.3l-20.3,5.4c-1.5,0.4-2.5,1.8-2.3,3.3
					c0.2,1.5,1.3,2.6,2.9,2.6h44c1.5,0,2.9-1.1,3.1-2.6C56.5,112.9,55.7,111.5,54.2,111.1z M7.4,37c-1.1-3.8-1.6-8-1.6-12.5
					C5.8,18.1,7,11.3,9,6h3.5c-1.8,3.9-2.7,8.1-2.8,13c-0.1,0.1-0.1,0.3-0.1,0.5c0,1,0.1,2.7,0.3,4.2c0.1,0.8,0.8,1.3,1.5,1.3
					c0.1,0,0.1,0,0.2,0c0.8-0.1,1.4-0.9,1.3-1.7c-0.2-1.1-0.2-2.4-0.3-3.3c0-0.1,0.1-0.3,0.1-0.5c0-5.2,1-9.5,3.1-13.5h37.5
					c2,5.3,3.2,12,3.2,18.4c0,4.5-0.6,8.8-1.7,12.6H7.4z"/>
			</g>
		</g>
	</g>
</g>
</svg>
