<?xml version="1.0" encoding="utf-8"?>
<!-- Generator: Adobe Illustrator 18.0.0, SVG Export Plug-In . SVG Version: 6.00 Build 0)  -->
<!DOCTYPE svg PUBLIC "-//W3C//DTD SVG 1.1//EN" "http://www.w3.org/Graphics/SVG/1.1/DTD/svg11.dtd">
<svg version="1.1" xmlns="http://www.w3.org/2000/svg" xmlns:xlink="http://www.w3.org/1999/xlink" x="0px" y="0px"
	 viewBox="0 0 118.9 118.9" style="enable-background:new 0 0 118.9 118.9;" xml:space="preserve">
<g id="Layer_1">
</g>
<g id="Layer_2">
</g>
<g id="Layer_3">
	<g>
		<path d="M59.3,3.2c31.1,0,56.5,25.3,56.5,56.5s-25.3,56.5-56.5,56.5S2.8,90.8,2.8,59.7S28.1,3.2,59.3,3.2 M59.3,0.2
			C26.4,0.2-0.2,26.8-0.2,59.7s26.6,59.4,59.4,59.4c32.8,0,59.4-26.6,59.4-59.4S92.1,0.2,59.3,0.2L59.3,0.2z"/>
		<g>
			<g>
				<path d="M59.3,13.7c-25.4,0-45.9,20.6-45.9,46c0,25.4,20.6,45.9,45.9,45.9c25.4,0,46-20.6,46-45.9
					C105.2,34.3,84.7,13.7,59.3,13.7z M31.5,72c-2.8,0-5-2.2-5-5s2.3-5,5-5s5,2.3,5,5S34.2,72,31.5,72z M26.4,39.1
					c0-5.5,4.5-10,10-10c5.5,0,10,4.5,10,10s-4.5,10-10,10C30.9,49.2,26.4,44.7,26.4,39.1z M48.3,98.4c-6,0-10.9-4.9-10.9-10.9
					c0-6,4.9-11,10.9-11s10.9,4.9,10.9,11C59.3,93.5,54.4,98.4,48.3,98.4z M64.8,59.2c-3.5,0-6.4-2.9-6.4-6.4c0-3.5,2.9-6.4,6.4-6.4
					c3.5,0,6.4,2.9,6.4,6.4C71.1,56.4,68.3,59.2,64.8,59.2z M66.6,27.3c0-3.5,2.9-6.4,6.4-6.4c3.5,0,6.4,2.9,6.4,6.4
					c0,3.5-2.9,6.4-6.4,6.4C69.4,33.7,66.6,30.8,66.6,27.3z M81.6,92c-4.3,0-7.8-3.5-7.8-7.8c0-4.3,3.5-7.8,7.8-7.8
					c4.3,0,7.8,3.5,7.8,7.8C89.4,88.6,85.9,92,81.6,92z M90.3,65.6c-5,0-9.1-4.1-9.1-9.1c0-5,4.1-9.1,9.1-9.1c5,0,9.1,4.1,9.1,9.1
					C99.4,61.5,95.3,65.6,90.3,65.6z"/>
			</g>
		</g>
	</g>
</g>
</svg>
