<?xml version="1.0" encoding="utf-8"?>
<!-- Generator: Adobe Illustrator 18.0.0, SVG Export Plug-In . SVG Version: 6.00 Build 0)  -->
<!DOCTYPE svg PUBLIC "-//W3C//DTD SVG 1.1//EN" "http://www.w3.org/Graphics/SVG/1.1/DTD/svg11.dtd">
<svg version="1.1" xmlns="http://www.w3.org/2000/svg" xmlns:xlink="http://www.w3.org/1999/xlink" x="0px" y="0px"
	 viewBox="0 0 124.9 99" style="enable-background:new 0 0 124.9 99;" xml:space="preserve">
<g id="Layer_1">
</g>
<g id="Layer_2">
</g>
<g id="Layer_3">
	<g>
		<g>
			<path d="M91.9,0.6c-0.7,0-1.3,0.2-1.8,0.6l-88.4,33c-1.4,0.5-2.2,1.9-1.9,3.3c0,0.1,0,0.2,0.1,0.3V96c0,1.7,1.3,3,3,3h119
				c1.7,0,3-1.3,3-3V33.5C124.9,15,110.4,0.6,91.9,0.6z M80.4,34c1.9-4.8,6.5-8.2,12-8.2c5.5,0,10.1,3.4,12,8.2c0.4,1,0.6,2,0.8,3
				c0.1,0.5,0.1,1.1,0.1,1.6c0,0.5,0,0.9-0.1,1.4c-0.7,6.5-6.2,11.5-12.8,11.5c-6.7,0-12.1-5.1-12.8-11.5c-0.1-0.4-0.1-0.9-0.1-1.4
				c0-0.6,0-1.1,0.1-1.6C79.8,36,80,35,80.4,34z M5.9,64.6c0.6-0.1,1.2-0.2,1.8-0.2c5.7,0,10.4,4.7,10.4,10.4
				c0,5.7-4.7,10.4-10.4,10.4c-0.6,0-1.2-0.1-1.8-0.2V64.6z M59.9,93c1.3-8.9,8.9-15.7,18.1-15.7c9.2,0,16.9,6.9,18.1,15.7H59.9z
				 M118.9,93H99.2c-1.3-10.5-10.3-18.7-21.1-18.7c-10.9,0-19.9,8.2-21.1,18.7h-51v-5c0.6,0.1,1.2,0.1,1.8,0.1
				c7.4,0,13.4-6,13.4-13.4c0-7.4-6-13.4-13.4-13.4c-0.6,0-1.2,0-1.8,0.1V40h70.8c0.7,8.1,7.5,14.5,15.8,14.5
				c8.3,0,15.1-6.4,15.8-14.5h10.7V93z"/>
		</g>
		<g>
			<path d="M50.3,44.6c-5.2,0-9.4,4.2-9.4,9.4c0,5.2,4.2,9.4,9.4,9.4s9.4-4.2,9.4-9.4C59.7,48.8,55.5,44.6,50.3,44.6z M50.3,60.4
				c-3.5,0-6.4-2.9-6.4-6.4c0-3.6,2.9-6.4,6.4-6.4c3.6,0,6.4,2.9,6.4,6.4C56.8,57.5,53.9,60.4,50.3,60.4z"/>
		</g>
	</g>
</g>
</svg>
