<?xml version="1.0" encoding="utf-8"?>
<!-- Generator: Adobe Illustrator 18.0.0, SVG Export Plug-In . SVG Version: 6.00 Build 0)  -->
<!DOCTYPE svg PUBLIC "-//W3C//DTD SVG 1.1//EN" "http://www.w3.org/Graphics/SVG/1.1/DTD/svg11.dtd">
<svg version="1.1" xmlns="http://www.w3.org/2000/svg" xmlns:xlink="http://www.w3.org/1999/xlink" x="0px" y="0px"
	 viewBox="0 0 123.9 125" style="enable-background:new 0 0 123.9 125;" xml:space="preserve">
<g id="Layer_1">
</g>
<g id="Layer_2">
</g>
<g id="Layer_3">
	<g>
		<g>
			<path d="M84.6,124.9c-0.2,0-0.5,0-0.7-0.1c-1.3-0.3-2.3-1.5-2.3-2.9l-0.1-19.4l-3.5,0c-42.8,0-77.7-35-77.7-78l0-21
				c0-1.6,1.3-3,3-3l21.7,0c20.7,0,40.2,8,54.7,22.4c14.6,14.5,22.6,33.9,22.6,54.6l0,5.4L121,83c0,0,0,0,0,0c1.4,0,2.6,0.7,2.9,2
				c0.3,1.3-0.3,2.6-1.5,3.2l-23.1,12.2l-12.1,22.9C86.7,124.3,85.7,124.9,84.6,124.9z M84.5,96c0.8,0,1.5,0.6,2.1,1.1
				c0.6,0.6,0.9,1.4,0.9,2.2l0.1,10.6l7-13.2c0.3-0.5,0.7-0.9,1.2-1.2l13.2-6.8L99.4,89c0,0,0,0,0,0c-0.8,0-1.5-0.5-2.1-1.1
				c-0.6-0.6-0.9-1.4-0.9-2.2l0-8.2c0-39.2-32-71-71.4-71l-18.7,0l0,18.1c0,39.8,32.2,71.8,71.7,71.8L84.5,96
				C84.5,96,84.5,96,84.5,96z"/>
		</g>
		<g>
			<path d="M31,29.6c-5.1,0-9.3-4.2-9.3-9.3S25.9,11,31,11s9.3,4.2,9.3,9.3S36.1,29.6,31,29.6z M31,16.9c-1.9,0-3.4,1.5-3.4,3.4
				s1.5,3.4,3.4,3.4c1.9,0,3.4-1.5,3.4-3.4S32.9,16.9,31,16.9z"/>
		</g>
		<g>
			<path d="M17.9,67.4c-0.7,0-1.4,0-2.1-0.1c-0.8-0.1-1.4-0.8-1.3-1.6c0.1-0.8,0.8-1.4,1.6-1.3c0.6,0.1,1.2,0.1,1.8,0.1
				c10.1,0,18.3-8.2,18.3-18.3c0-2.8-0.6-5.5-1.8-8c-0.4-0.7-0.1-1.6,0.7-2c0.7-0.4,1.6-0.1,2,0.7c1.4,2.9,2.1,6,2.1,9.3
				C39.2,57.9,29.6,67.4,17.9,67.4z"/>
		</g>
		<g>
			<path d="M43.8,40.4c-2.6,0-5-0.4-7.4-1.3c-0.8-0.3-1.2-1.1-0.9-1.9c0.3-0.8,1.1-1.2,1.9-0.9c2,0.8,4.2,1.1,6.4,1.1
				c10.1,0,18.3-8.2,18.3-18.3c0-1.4-0.2-2.9-0.5-4.2c-0.2-0.8,0.3-1.6,1.1-1.8c0.8-0.2,1.6,0.3,1.8,1.1c0.4,1.6,0.6,3.3,0.6,4.9
				C65.1,30.8,55.5,40.4,43.8,40.4z"/>
		</g>
		<g>
			<path d="M39.6,64.5c-2.6,0-5-0.4-7.4-1.3c-0.8-0.3-1.2-1.1-0.9-1.9s1.1-1.2,1.9-0.9c2,0.8,4.2,1.1,6.4,1.1
				c10.1,0,18.3-8.2,18.3-18.3c0-2.8-0.6-5.5-1.8-8c-0.4-0.7-0.1-1.6,0.7-2c0.7-0.4,1.6-0.1,2,0.7c1.4,2.9,2.1,6,2.1,9.3
				C60.9,54.9,51.3,64.5,39.6,64.5z"/>
		</g>
		<g>
			<path d="M65.5,37.4c-2.6,0-5-0.4-7.4-1.3c-0.8-0.3-1.2-1.1-0.9-1.9c0.3-0.8,1.1-1.2,1.9-0.9c2,0.8,4.2,1.1,6.4,1.1
				c4.4,0,8.7-1.6,12.1-4.5c0.6-0.5,1.6-0.5,2.1,0.1c0.5,0.6,0.5,1.6-0.1,2.1C75.7,35.5,70.7,37.4,65.5,37.4z"/>
		</g>
		<g>
			<path d="M33.4,84.5c-0.3,0-0.6-0.1-0.8-0.2c-0.7-0.4-0.9-1.4-0.4-2.1c1.9-2.9,2.9-6.4,2.9-9.9c0-2.8-0.6-5.5-1.8-8
				c-0.4-0.7-0.1-1.6,0.7-2c0.7-0.4,1.6-0.1,2,0.7c1.4,2.9,2.1,6,2.1,9.3c0,4.1-1.2,8.1-3.4,11.5C34.4,84.3,33.9,84.5,33.4,84.5z"/>
		</g>
		<g>
			<path d="M37.5,87.1c-0.7,0-1.4,0-2.1-0.1c-0.8-0.1-1.4-0.8-1.3-1.6c0.1-0.8,0.8-1.4,1.6-1.3c0.6,0.1,1.2,0.1,1.8,0.1
				c10.1,0,18.3-8.2,18.3-18.3c0-2.8-0.6-5.5-1.8-8c-0.4-0.7-0.1-1.6,0.7-2c0.7-0.4,1.6-0.1,2,0.7c1.4,2.9,2.1,6,2.1,9.3
				C58.8,77.5,49.3,87.1,37.5,87.1z"/>
		</g>
		<g>
			<path d="M63.4,60c-2.6,0-5-0.4-7.4-1.3c-0.8-0.3-1.2-1.1-0.9-1.9c0.3-0.8,1.1-1.2,1.9-0.9c2,0.8,4.2,1.1,6.4,1.1
				c10.1,0,18.3-8.2,18.3-18.3c0-2.8-0.6-5.5-1.8-8c-0.4-0.7-0.1-1.6,0.7-2c0.7-0.4,1.6-0.1,2,0.7c1.4,2.9,2.1,6,2.1,9.3
				C84.7,50.5,75.2,60,63.4,60z"/>
		</g>
		<g>
			<path d="M71.4,100.6c-0.4,0-0.7-0.1-1-0.4c-0.6-0.6-0.6-1.5,0-2.1c3.3-3.4,5.1-7.9,5.1-12.7c0-2.8-0.6-5.5-1.8-8
				c-0.4-0.7-0.1-1.6,0.7-2c0.7-0.4,1.6-0.1,2,0.7c1.4,2.9,2.1,6,2.1,9.3c0,5.5-2.1,10.7-5.9,14.7C72.2,100.4,71.8,100.6,71.4,100.6
				z"/>
		</g>
		<g>
			<path d="M83.1,79.6c-2.6,0-5-0.4-7.4-1.3c-0.8-0.3-1.2-1.1-0.9-1.9c0.3-0.8,1.1-1.2,1.9-0.9c2,0.8,4.2,1.1,6.4,1.1
				c5.7,0,11-2.6,14.5-7.2c0.5-0.7,1.4-0.8,2.1-0.3c0.7,0.5,0.8,1.4,0.3,2.1C95.9,76.6,89.7,79.6,83.1,79.6z"/>
		</g>
		<g>
			<path d="M59.2,84.1c-2.6,0-5-0.4-7.4-1.3c-0.8-0.3-1.2-1.1-0.9-1.9c0.3-0.8,1.1-1.2,1.9-0.9c2,0.8,4.2,1.1,6.4,1.1
				c10.1,0,18.3-8.2,18.3-18.3c0-2.8-0.6-5.5-1.8-8c-0.4-0.7-0.1-1.6,0.7-2c0.7-0.4,1.6-0.1,2,0.7c1.4,2.9,2.1,6,2.1,9.3
				C80.5,74.6,71,84.1,59.2,84.1z"/>
		</g>
		<g>
			<path d="M85.1,57c-2.6,0-5-0.4-7.4-1.3c-0.8-0.3-1.2-1.1-0.9-1.9c0.3-0.8,1.1-1.2,1.9-0.9c5.1,1.9,11,1.4,15.7-1.4
				c0.7-0.4,1.6-0.2,2,0.5c0.4,0.7,0.2,1.6-0.5,2C92.7,56,88.9,57,85.1,57z"/>
		</g>
		<g>
			<path d="M55.7,97.5c-0.1,0-0.2,0-0.3,0c-0.8-0.2-1.3-1-1.1-1.8c0.3-1.2,0.4-2.5,0.4-3.8c0-2.8-0.6-5.5-1.8-8
				c-0.4-0.7-0.1-1.6,0.7-2c0.7-0.4,1.6-0.1,2,0.7c1.4,2.9,2.1,6,2.1,9.3c0,1.5-0.2,3-0.5,4.4C57,97,56.4,97.5,55.7,97.5z"/>
		</g>
		<g>
			<path d="M37.5,87.7c-0.3,0.9-0.6,1.7-1,2.5L31.9,99l-8.9-4.5c-8.1-4.1-11.3-14-7.2-22.1l1.7-3.3"/>
			<path d="M31.9,102c-0.5,0-0.9-0.1-1.3-0.3l-8.9-4.5c-4.6-2.3-8-6.3-9.6-11.3c-1.6-4.9-1.2-10.2,1.1-14.8l1.7-3.3
				c0.7-1.4,2.5-2,3.9-1.3c1.4,0.7,2,2.5,1.3,3.9l-1.7,3.3c-1.6,3.2-1.9,6.9-0.8,10.3c1.1,3.4,3.5,6.2,6.7,7.9l6.2,3.2l3.2-6.2
				c0.3-0.7,0.6-1.4,0.8-2.1c0.5-1.5,2.1-2.4,3.7-1.9c1.5,0.5,2.4,2.1,1.9,3.7c-0.3,1-0.7,2-1.2,3l-4.5,8.9c-0.4,0.7-1,1.2-1.7,1.5
				C32.5,101.9,32.2,102,31.9,102z"/>
		</g>
		<g>
			<path d="M88.6,39c0.9-0.2,1.7-0.6,2.5-1l9-4.3l-4.3-9c-3.9-8.2-13.7-11.7-21.9-7.7l-3.4,1.6"/>
			<path d="M88.6,42c-1.3,0-2.4-0.8-2.8-2.1c-0.4-1.6,0.4-3.2,2-3.6c0.7-0.2,1.4-0.5,2.1-0.8l6.3-3l-3-6.3c-3.2-6.7-11.3-9.6-18-6.4
				l-3.4,1.6c-1.5,0.7-3.2,0.1-3.9-1.4c-0.7-1.5-0.1-3.2,1.4-3.9l3.4-1.6c9.6-4.6,21.2-0.5,25.8,9.1l4.3,9c0.3,0.7,0.4,1.5,0.1,2.2
				s-0.8,1.3-1.5,1.7l-9,4.3c-1,0.5-2,0.8-3,1.1C89.2,41.9,88.9,42,88.6,42z"/>
		</g>
		<g>
			<path d="M73.5,98.9l10.7-0.7l0.8,6.3c0,0,1,10,1.5,9.8c0.5-0.2,9.1-17.5,9.1-17.5l16.1-7.7l-12.5-3.5L98.5,73c0,0-9.9,5-9.6,4.9
				c0.4-0.1-13.1,1.4-13.1,1.4v12.6L73.5,98.9z"/>
		</g>
	</g>
</g>
</svg>
