<?xml version="1.0" encoding="utf-8"?>
<!-- Generator: Adobe Illustrator 18.0.0, SVG Export Plug-In . SVG Version: 6.00 Build 0)  -->
<!DOCTYPE svg PUBLIC "-//W3C//DTD SVG 1.1//EN" "http://www.w3.org/Graphics/SVG/1.1/DTD/svg11.dtd">
<svg version="1.1" xmlns="http://www.w3.org/2000/svg" xmlns:xlink="http://www.w3.org/1999/xlink" x="0px" y="0px"
	 viewBox="0 0 124.8 116.5" style="enable-background:new 0 0 124.8 116.5;" xml:space="preserve">
<g id="Layer_1">
</g>
<g id="Layer_2">
</g>
<g id="Layer_3">
	<g>
		<g>
			<path d="M122,92.8c-1.9-1.9-4.5-3-7.3-3c-3,0-5.9,1.2-8,3.3c-0.4,0.4-0.7,0.8-1,1.2L95,83.6c0.7-4.4-0.7-9.2-4.2-12.7l-0.4-0.4
				c-4.6-4.6-6.3-11.5-4.4-18c4.9-16.8,0.3-35.1-12.1-48.1c-0.2-0.2-0.3-0.3-0.5-0.5c0,0-0.1-0.1-0.1-0.1c-0.8-0.8-1.7-1.4-2.7-2
				c-2-1-4.3-1.5-7-1.5c-11,0-26.9,8.9-40.7,22.7c-9,9-16,19-19.8,28.1c-3.3,8.1-3.8,14.9-1.3,19.6c0.5,1,1.2,1.9,2,2.7
				c0,0,0.1,0.1,0.1,0.1c0.2,0.1,0.3,0.3,0.5,0.4c9.5,9.1,21.7,14.1,34.5,14.1c4.6,0,9.2-0.7,13.6-2c1.7-0.5,3.5-0.8,5.3-0.8
				c4.8,0,9.3,1.8,12.6,5.1l0.8,0.8c2.6,2.6,6.1,4,9.8,4c1.7,0,3.3-0.3,4.8-0.8c3.9,4,7.9,8.1,9.8,10.2c-1.5,3.1-0.9,6.9,1.8,9.6
				c1.6,1.6,3.8,2.5,6.1,2.5s4.5-0.9,6.2-2.5c0.7-0.7,1.8-2.1,2.6-3.1c2.5-0.1,7-0.8,9.7-3.5C126.1,103.6,126.1,96.9,122,92.8z
				 M50.2,50.4C37.7,62.9,23.1,71.3,13.7,71.3c-2.5,0-4.4-0.6-5.7-1.9c-0.8-0.8-1.4-1.9-1.7-3.3C5.8,63,6.5,58.6,8.7,53.4
				c3.5-8.4,10-17.7,18.5-26.1C39.6,14.8,54.3,6.4,63.6,6.4c0.9,0,1.6,0.1,2.4,0.2c1.4,0.3,2.5,0.8,3.3,1.6
				C74.7,13.7,68.2,32.4,50.2,50.4z M117.8,103.4c-0.6,0.6-1.6,1-2.9,1.2c-1.3,0.3-2.7,0.4-4,0.4l-1.5,0.1l-0.9,1.4
				c-0.9,1.2-2.4,3.1-3,3.7c-1,1-2.9,1-3.9,0c-0.9-0.9-1.3-2.4-0.2-3.5c2.1-2.1,0.3-4.1-1.9-6.4c-1.2-1.3-2.9-3-4.5-4.8
				c-1.5-1.5-2.9-3-4.1-4.2c0.4-0.4,0.8-0.9,1.2-1.3c0.1-0.1,0.2-0.3,0.3-0.4l14.8,14.8l2.1-4.5c0.7-1.5,0.9-2,1.5-2.6
				c0.9-1,2.4-1.5,3.8-1.5c1.2,0,2.3,0.4,3.1,1.2C119.6,98.7,119.6,101.6,117.8,103.4z"/>
		</g>
		<g>
			<path d="M66.4,18.5c-0.1,0.8-0.8,1.4-1.7,1.3c-0.7-0.1-1.2-0.6-1.3-1.3c0-0.1,0-0.3,0-0.4c0.1-1.1,0.1-2.6-0.7-3.4
				c-1.8-1.8-8-0.6-17.6,6.1c-0.7,0.5-1.5,1-2.2,1.6c-0.3,0.2-0.6,0.3-0.9,0.3c-0.5,0-0.9-0.2-1.2-0.6c-0.5-0.7-0.4-1.6,0.3-2.1
				C52.2,11.8,61.1,9,64.8,12.7C66.1,14,66.7,16,66.4,18.5z"/>
		</g>
		<g>
			<path d="M29.1,46.6c-0.5-0.4-1.3-1-2.7-1c-2.4,0-5.5,1.7-8.3,4.4c-3.6,3.5-5.9,8.4-3.4,10.9c0.5,0.5,1.3,1,2.7,1
				c2.4,0,5.5-1.7,8.3-4.4c1.8-1.8,3.2-3.8,3.9-5.6C30.8,48.8,29.8,47.3,29.1,46.6z M17.5,58.9c-0.3,0-0.5,0-0.5-0.1
				c-0.5-0.5,0.1-3.4,3.4-6.7c2.4-2.4,4.9-3.5,6.1-3.5c0.3,0,0.5,0.1,0.5,0.1c0.2,0.2,0.3,0.9-0.2,2.1c-0.6,1.5-1.7,3.1-3.2,4.6
				C21.2,57.8,18.7,58.9,17.5,58.9z"/>
		</g>
	</g>
</g>
</svg>
