<?xml version="1.0" encoding="utf-8"?>
<!-- Generator: Adobe Illustrator 18.0.0, SVG Export Plug-In . SVG Version: 6.00 Build 0)  -->
<!DOCTYPE svg PUBLIC "-//W3C//DTD SVG 1.1//EN" "http://www.w3.org/Graphics/SVG/1.1/DTD/svg11.dtd">
<svg version="1.1" xmlns="http://www.w3.org/2000/svg" xmlns:xlink="http://www.w3.org/1999/xlink" x="0px" y="0px"
	 viewBox="0 0 72 123" style="enable-background:new 0 0 72 123;" xml:space="preserve">
<g id="Layer_1">
</g>
<g id="Layer_2">
</g>
<g id="Layer_3">
	<g>
		<g>
			<path d="M71.2,15.7l-6.5-6.8C64.1,8.3,63.3,8,62.5,8h-15l2.5-2.5c1.2-1.2,1.2-3.1,0-4.2c-1.2-1.2-3.1-1.2-4.3,0L39.1,8H8.6
				C7.7,8,6.8,8.4,6.3,9.1l-5.6,6.8C0.2,16.5,0,17.1,0,17.8v96c0,0.8,0.3,1.5,0.8,2l5.6,6.2c0.6,0.6,1.4,1,2.2,1h53.9
				c0.8,0,1.5-0.3,2.1-0.8l6.5-6.2c0.6-0.6,0.9-1.3,0.9-2.2v-96C72,17,71.7,16.3,71.2,15.7z M10,14h51.2l2.9,3H7.5L10,14z M61.3,117
				H9.9l-2.7-3h57.3L61.3,117z M66,111H6V20h60V111z"/>
		</g>
		<g>
			<g>
				<path d="M17.1,61.4c0,0,0,0.1,0,0.1c1.1-0.5,2.3-0.8,3.6-1C19.4,60.6,18.2,60.9,17.1,61.4z"/>
			</g>
			<g>
				<path d="M35.3,66.1c-2.8-2.7-5.9-5.8-12-5.8c-0.9,0-1.7,0-2.5,0.2c0.8-0.1,1.6-0.1,2.5-0.1C29.4,60.4,32.5,63.4,35.3,66.1
					c0.5,0.5,1,1,1.6,1.5C36.4,67.1,35.9,66.6,35.3,66.1z M57,67.7c0,0.3,0,0.5,0,0.7C57,68.2,57,67.9,57,67.7z M57,68.7
					C57,68.7,57,68.8,57,68.7C57,68.8,57,68.8,57,68.7L57,68.7z M35.3,66.1c-2.8-2.7-5.9-5.8-12-5.8c-0.9,0-1.7,0-2.5,0.2
					c0.8-0.1,1.6-0.1,2.5-0.1C29.4,60.4,32.5,63.4,35.3,66.1c0.5,0.5,1,1,1.6,1.5C36.4,67.1,35.9,66.6,35.3,66.1z"/>
				<path d="M57.3,65.8c0-12.1-9.6-21.9-21.8-21.9c-11.3,0-20.8,8.7-21.9,19.9c0,0.1,0,0.1,0,0.2c0,0.6-0.1,1.2-0.1,1.9
					c0,12.2,9.6,22.1,21.8,22.1c11.2,0,21-8.3,21.7-19.2c0,0,0,0,0-0.1c0-0.1,0-0.2,0-0.3c0-0.2,0-0.5,0-0.7c0,0,0,0,0,0
					C57,67.6,57.3,66.3,57.3,65.8z M53.9,67.6c-0.2,0.2-0.5,0.4-0.8,0.6c-0.2,0.1-0.4,0.3-0.5,0.4c-0.6,0.4-1.2,0.9-1.8,1.2
					c-0.2,0.1-0.3,0.2-0.5,0.2c-0.1,0.1-0.3,0.1-0.4,0.2c-0.1,0-0.2,0.1-0.3,0.1c-0.3,0.1-0.7,0.2-1.1,0.3c-0.2,0-0.4,0.1-0.7,0.1
					c-0.7,0.1-1.4,0.2-2.2,0.2h-0.4c-1.8,0-3.3-0.3-4.6-0.9c-0.5-0.2-1-0.5-1.5-0.8c-0.2-0.1-0.5-0.3-0.7-0.5
					c-0.6-0.4-1.1-0.8-1.6-1.3c-0.5-0.5-1-1-1.6-1.5c-2.8-2.7-5.9-5.7-12-5.7c-0.9,0-1.7,0-2.5,0.1c0,0,0,0-0.1,0
					c-1.3,0.2-2.5,0.5-3.6,1c0,0,0-0.1,0-0.1c2.1-8.3,9.7-14.4,18.4-14.4c10.2,0,18.7,8,19.2,18c0,0.1,0,0.2,0,0.4
					c0,0.2,0,0.4,0,0.6C54.8,66.1,54.2,67.4,53.9,67.6z"/>
			</g>
		</g>
		<g>
			<path d="M54.8,65.2l-0.2-0.1l0.2-0.2C54.8,65,54.8,65.1,54.8,65.2z"/>
		</g>
	</g>
</g>
</svg>
