<?xml version="1.0" encoding="utf-8"?>
<!-- Generator: Adobe Illustrator 18.0.0, SVG Export Plug-In . SVG Version: 6.00 Build 0)  -->
<!DOCTYPE svg PUBLIC "-//W3C//DTD SVG 1.1//EN" "http://www.w3.org/Graphics/SVG/1.1/DTD/svg11.dtd">
<svg version="1.1" xmlns="http://www.w3.org/2000/svg" xmlns:xlink="http://www.w3.org/1999/xlink" x="0px" y="0px"
	 viewBox="0 0 50.9 124.9" style="enable-background:new 0 0 50.9 124.9;" xml:space="preserve">
<g id="Layer_1">
</g>
<g id="Layer_2">
</g>
<g id="Layer_3">
	<g>
		<g>
			<path d="M36.9,33v-4H38c1.7,0,2.9-1.5,2.9-3.1v-10c0-1.7-1.2-2.9-2.9-2.9h-1.5l2.4-9.3c0.2-0.9,0-1.8-0.5-2.6
				C37.8,0.4,36.9,0,36,0H16.1c-0.9,0-1.8,0.4-2.4,1.1c-0.6,0.7-0.8,1.7-0.5,2.6l2.4,9.3H13c-1.7,0-3.1,1.2-3.1,2.9v10
				c0,1.7,1.5,3.1,3.1,3.1h1.9v4c-7,4.5-15,12.1-15,20.8v68c0,1.7,1.5,3.1,3.1,3.1h45c1.7,0,2.9-1.5,2.9-3.1v-68
				C50.9,44.8,43.9,37.3,36.9,33z M32.1,6l-1.8,7h-8.6L20,6H32.1z M5.9,72.9c2-1.2,5.4-2.3,10.2-2.3c2.9,0,5.6,0.7,8.4,2.1
				c0.7,0.4,1.1,1.3,0.7,2c-0.4,0.7-1.3,1-2,0.7c-2.4-1.2-4.7-1.8-7.1-1.8c-5.9,0-9.2,1.8-10.2,2.9V72.9z M16.1,89.1
				c0-3.3,2.7-6,6-6c3.3,0,6,2.7,6,6c0,3.3-2.7,6-6,6C18.8,95.1,16.1,92.4,16.1,89.1z M44.9,119H27.8c-1.7-2-2.8-4.7-2.8-7.5
				c0-6.3,5.1-11.4,11.4-11.4c3.4,0,6.5,1.4,8.5,3.8V119z M38.4,72.2c0,0,0,0.1,0,0.1c0,0.3,0,0.5-0.1,0.8c-0.1,0.2-0.1,0.5-0.3,0.7
				c-0.6,1.1-1.7,1.9-3.1,1.9c-1.9,0-3.5-1.6-3.5-3.5c0-0.2,0-0.5,0.1-0.7c0.1-0.5,0.3-0.9,0.5-1.3c0.4-0.5,0.9-1,1.5-1.2
				c0.4-0.2,0.8-0.3,1.3-0.3c1.3,0,2,0.7,3,1.8c0,0,0,0,0,0C37.9,71.1,38.4,71.6,38.4,72.2z M44.9,71.7c-1,0-2.4-0.2-3.5-0.4
				c-0.4-3.2-3.1-5.6-6.4-5.6c-1.8,0-3.4,0.7-4.6,1.9l0,0c0,0.1-0.1,0.1-0.2,0.2c-0.3-0.1-0.6-0.4-0.9-0.5c-4.6-2-9-3.9-13.6-3.9
				c-4.6,0-7.8,1-9.8,2.2V53.9c0-6.7,7.2-13.1,13.4-16.5c1-0.5,1.6-1.5,1.6-2.6v-8.9c0-1.7-1.2-2.9-2.9-2.9h-2.1v-4h19v4H34
				c-1.7,0-3.1,1.2-3.1,2.9v8.9c0,1.1,0.6,2.1,1.6,2.6c5.7,3.1,12.4,9.3,12.4,16.5V71.7z"/>
		</g>
	</g>
</g>
</svg>
