<?xml version="1.0" encoding="iso-8859-1"?>
<!-- Generator: Adobe Illustrator 19.0.0, SVG Export Plug-In . SVG Version: 6.00 Build 0)  -->
<svg version="1.1" id="Capa_1" xmlns="http://www.w3.org/2000/svg" xmlns:xlink="http://www.w3.org/1999/xlink" x="0px" y="0px"
	 viewBox="0 0 512.084 512.084" style="enable-background:new 0 0 512.084 512.084;" xml:space="preserve">
<g>
	<g>
		<path d="M477.94,128.63c-0.092-0.191-0.09-0.401-0.198-0.588c-0.106-0.183-0.285-0.283-0.402-0.455
			C406.532,5.368,250.052-36.309,127.832,34.499c-38.619,22.374-70.711,54.466-93.086,93.085c-0.117,0.173-0.298,0.275-0.404,0.458
			c-0.108,0.187-0.106,0.397-0.198,0.588c-45.469,78.856-45.469,175.968,0,254.824c0.092,0.191,0.09,0.401,0.198,0.588
			c0.17,0.247,0.354,0.484,0.55,0.71c70.95,122.138,227.478,163.634,349.616,92.684c38.421-22.319,70.365-54.263,92.684-92.684
			c0.196-0.227,0.38-0.464,0.55-0.71c0.108-0.187,0.106-0.397,0.198-0.588C523.409,304.598,523.409,207.487,477.94,128.63z
			 M45.048,144.078l14.793,8.54c-34.221,64.703-34.221,142.145,0,206.848l-14.793,8.54C7.796,298.012,7.796,214.073,45.048,144.078z
			 M74.635,161.16l164.339,94.882L74.635,350.924C43.445,291.515,43.445,220.57,74.635,161.16z M247.509,494.759
			c-79.201-2.869-151.827-44.82-193.885-111.993l14.788-8.538c38.992,61.905,105.992,100.611,179.098,103.465V494.759z
			 M247.509,460.626c-67.009-2.836-128.385-38.299-164.308-94.937l164.308-94.865V460.626z M247.509,241.261L83.201,146.396
			c35.923-56.637,97.299-92.1,164.308-94.936V241.261z M247.509,34.392c-73.105,2.854-140.106,41.56-179.098,103.465l-14.788-8.538
			C95.681,62.145,168.307,20.195,247.509,17.326V34.392z M264.575,17.326c79.201,2.869,151.827,44.82,193.885,111.993l-14.788,8.538
			C404.681,75.952,337.681,37.246,264.575,34.392V17.326z M437.449,350.925l-164.339-94.882l164.339-94.882
			C468.64,220.57,468.64,291.515,437.449,350.925z M264.575,51.459c67.009,2.836,128.385,38.299,164.308,94.936l-164.308,94.865
			V51.459z M264.575,270.824l164.308,94.865c-35.923,56.637-97.299,92.1-164.308,94.937V270.824z M264.575,494.759v-17.066
			c73.105-2.854,140.106-41.56,179.098-103.465l14.788,8.538C416.403,449.939,343.777,491.89,264.575,494.759z M467.036,368.006
			l-14.793-8.54c34.221-64.703,34.221-142.145,0-206.848l14.793-8.54C504.289,214.073,504.289,298.012,467.036,368.006z"/>
	</g>
</g>
<g>
	<g>
		<path d="M219.434,79.317c-3.346-3.346-8.771-3.346-12.117,0c-3.346,3.346-3.346,8.771,0,12.117
			c0.817,0.77,1.773,1.378,2.817,1.791c1.026,0.437,2.127,0.67,3.242,0.683c4.732-0.019,8.553-3.87,8.534-8.602
			C221.901,83.063,221.012,80.913,219.434,79.317z"/>
	</g>
</g>
<g>
	<g>
		<path d="M134.101,130.517c-2.472-2.385-6.118-3.089-9.3-1.796c-1.045,0.413-2.002,1.023-2.817,1.796
			c-3.346,3.319-3.368,8.722-0.05,12.068c1.614,1.628,3.816,2.537,6.108,2.524c4.732-0.019,8.553-3.87,8.534-8.602
			C136.567,134.264,135.679,132.113,134.101,130.517z"/>
	</g>
</g>
<g>
	<g>
		<path d="M99.967,198.784c-3.398-3.219-8.719-3.219-12.117,0c-3.346,3.319-3.368,8.722-0.049,12.068
			c1.614,1.627,3.815,2.537,6.107,2.524c0.542-0.016,1.083-0.073,1.617-0.171c0.566-0.082,1.115-0.255,1.625-0.513
			c0.543-0.188,1.059-0.447,1.533-0.771c0.425-0.337,0.858-0.679,1.283-1.021C103.267,207.536,103.267,202.149,99.967,198.784z"/>
	</g>
</g>
<g>
	<g>
		<path d="M168.234,249.984c-0.831-0.754-1.783-1.361-2.817-1.796c-4.363-1.789-9.35,0.298-11.139,4.661
			c-1.301,3.173-0.577,6.817,1.838,9.252c0.425,0.341,0.85,0.683,1.275,1.021c0.477,0.324,0.996,0.583,1.542,0.771
			c0.483,0.245,1,0.418,1.533,0.513c0.565,0.098,1.135,0.155,1.708,0.171c4.732-0.019,8.553-3.87,8.534-8.602
			C170.701,253.73,169.812,251.579,168.234,249.984z"/>
	</g>
</g>
<g>
	<g>
		<path d="M349.734,245.801c-0.09-0.536-0.261-1.054-0.508-1.537c-0.172-0.523-0.431-1.013-0.767-1.45
			c-0.341-0.513-0.683-0.937-1.025-1.362c-3.319-3.346-8.722-3.368-12.068-0.049c-1.627,1.614-2.537,3.815-2.524,6.107
			c0.014,1.115,0.246,2.216,0.683,3.242c1.228,3.251,4.375,5.373,7.85,5.292c2.259-0.035,4.421-0.918,6.059-2.475
			c0.771-0.816,1.379-1.772,1.792-2.817c0.437-1.026,0.669-2.127,0.683-3.242C349.892,246.936,349.833,246.365,349.734,245.801z"/>
	</g>
</g>
<g>
	<g>
		<path d="M315.6,314.067c-0.089-0.536-0.261-1.054-0.508-1.538c-0.172-0.523-0.431-1.013-0.767-1.45
			c-0.341-0.513-0.683-0.938-1.025-1.363c-3.421-3.158-8.695-3.158-12.117,0c-0.341,0.425-0.683,0.85-1.025,1.363
			c-0.338,0.435-0.598,0.926-0.767,1.45c-0.246,0.485-0.42,1.003-0.517,1.538c-0.097,0.565-0.153,1.136-0.167,1.708
			c0.03,2.26,0.914,4.424,2.475,6.059c0.425,0.341,0.85,0.683,1.275,1.021c0.477,0.324,0.996,0.583,1.542,0.771
			c0.483,0.245,1,0.418,1.533,0.513c0.565,0.098,1.136,0.155,1.708,0.171c4.667,0.045,8.488-3.702,8.533-8.369
			c0.001-0.055,0.001-0.11,0-0.164C315.763,315.203,315.704,314.631,315.6,314.067z"/>
	</g>
</g>
<g>
	<g>
		<path d="M381.567,360.917c-0.425-0.341-0.859-0.683-1.284-1.025c-0.475-0.324-0.99-0.583-1.533-0.771
			c-0.483-0.244-1-0.416-1.533-0.509c-2.809-0.532-5.702,0.327-7.767,2.304c-0.368,0.405-0.71,0.832-1.025,1.279
			c-0.324,0.474-0.581,0.99-0.767,1.533c-0.246,0.485-0.42,1.003-0.517,1.538c-0.097,0.565-0.153,1.136-0.167,1.709
			c-0.031,1.119,0.203,2.23,0.683,3.242c0.433,1.034,1.039,1.987,1.792,2.817c1.636,1.558,3.799,2.441,6.058,2.475
			c0.573-0.016,1.144-0.073,1.708-0.171c0.533-0.096,1.05-0.269,1.533-0.513c0.543-0.188,1.059-0.447,1.533-0.771
			c0.449-0.313,0.877-0.654,1.284-1.021c0.753-0.83,1.359-1.783,1.792-2.817c0.437-1.026,0.669-2.127,0.683-3.242
			C384.009,364.717,383.125,362.553,381.567,360.917z"/>
	</g>
</g>
<g>
	<g>
		<path d="M227.967,309.717c-3.223-3.346-8.549-3.445-11.895-0.222c-0.885,0.852-1.572,1.888-2.014,3.034
			c-0.438,1.027-0.67,2.13-0.684,3.246c0.014,0.571,0.07,1.141,0.167,1.704c0.096,0.535,0.27,1.053,0.517,1.537
			c0.167,0.525,0.427,1.016,0.767,1.45c0.341,0.513,0.683,0.937,1.025,1.367c0.817,0.771,1.773,1.379,2.817,1.792
			c1.012,0.478,2.123,0.712,3.242,0.683c2.259-0.035,4.421-0.918,6.059-2.475c0.341-0.429,0.683-0.854,1.025-1.367
			c0.337-0.436,0.596-0.926,0.767-1.45c0.247-0.483,0.419-1.002,0.508-1.537c0.103-0.563,0.162-1.133,0.175-1.704
			C230.409,313.517,229.525,311.353,227.967,309.717z"/>
	</g>
</g>
<g>
	<g>
		<path d="M142.633,369.451c-0.817-0.771-1.773-1.381-2.817-1.796c-2.078-0.85-4.406-0.85-6.483,0
			c-0.546,0.187-1.064,0.447-1.542,0.771l-1.275,1.025c-1.574,1.625-2.461,3.796-2.475,6.059c0.014,1.115,0.246,2.216,0.683,3.242
			c0.412,1.044,1.02,2.001,1.791,2.817c0.403,0.367,0.829,0.708,1.275,1.021c0.477,0.324,0.996,0.583,1.542,0.771
			c2.065,0.911,4.418,0.911,6.483,0c1.033-0.435,1.985-1.041,2.817-1.792C145.933,378.203,145.933,372.816,142.633,369.451z"/>
	</g>
</g>
<g>
	<g>
		<path d="M298.025,193.063c-0.432-1.033-1.038-1.984-1.791-2.813c-3.421-3.158-8.695-3.158-12.117,0
			c-0.753,0.829-1.359,1.78-1.792,2.813c-0.438,1.027-0.67,2.13-0.683,3.246c0,4.713,3.82,8.533,8.533,8.533s8.533-3.82,8.533-8.533
			C298.695,195.193,298.463,194.09,298.025,193.063z"/>
	</g>
</g>
<g>
	<g>
		<path d="M298.026,90.663c-0.433-1.033-1.039-1.984-1.792-2.813c-3.421-3.158-8.695-3.158-12.117,0
			c-0.753,0.829-1.359,1.78-1.792,2.813c-0.911,2.067-0.911,4.421,0,6.487c0.433,1.034,1.039,1.987,1.792,2.817
			c3.365,3.3,8.752,3.3,12.117,0c0.753-0.83,1.359-1.783,1.792-2.817C298.937,95.084,298.937,92.729,298.026,90.663z"/>
	</g>
</g>
<g>
	<g>
		<path d="M196.309,119.509c-18.851,0-34.133,15.282-34.133,34.133c0.02,18.843,15.29,34.113,34.133,34.133
			c18.851,0,34.133-15.282,34.133-34.133S215.16,119.509,196.309,119.509z M196.309,170.709c-9.426,0-17.067-7.641-17.067-17.067
			c0.011-9.421,7.645-17.056,17.067-17.067c9.426,0,17.067,7.641,17.067,17.067C213.375,163.068,205.734,170.709,196.309,170.709z"
			/>
	</g>
</g>
<g>
	<g>
		<path d="M102.442,247.509c-18.851,0-34.133,15.282-34.133,34.133c0.02,18.843,15.29,34.113,34.133,34.133
			c18.851,0,34.133-15.282,34.133-34.133S121.293,247.509,102.442,247.509z M102.442,298.709c-9.426,0-17.067-7.641-17.067-17.067
			c0.011-9.421,7.646-17.056,17.067-17.067c9.426,0,17.067,7.641,17.067,17.067C119.509,291.068,111.868,298.709,102.442,298.709z"
			/>
	</g>
</g>
<g>
	<g>
		<path d="M315.775,366.976c-18.851,0-34.133,15.282-34.133,34.133c0,18.851,15.282,34.133,34.133,34.133
			s34.133-15.282,34.133-34.133C349.889,382.266,334.618,366.996,315.775,366.976z M315.775,418.176
			c-9.426,0-17.067-7.641-17.067-17.067c0-9.426,7.641-17.067,17.067-17.067s17.067,7.641,17.067,17.067
			C332.831,410.53,325.197,418.165,315.775,418.176z"/>
	</g>
</g>
<g>
	<g>
		<path d="M401.109,221.909c-18.851,0-34.133,15.282-34.133,34.133c0,18.851,15.282,34.133,34.133,34.133
			c18.851,0,34.133-15.282,34.133-34.133C435.222,237.199,419.952,221.929,401.109,221.909z M401.109,273.109
			c-9.426,0-17.067-7.641-17.067-17.067c0-9.426,7.641-17.067,17.067-17.067c9.426,0,17.067,7.641,17.067,17.067
			C418.165,265.464,410.53,273.098,401.109,273.109z"/>
	</g>
</g>
<g>
	<g>
		<path d="M196.309,358.442c-18.851,0-34.133,15.282-34.133,34.133c0.02,18.843,15.29,34.113,34.133,34.133
			c18.851,0,34.133-15.282,34.133-34.133C230.442,373.724,215.16,358.442,196.309,358.442z M196.309,409.642
			c-9.426,0-17.067-7.641-17.067-17.067c0.011-9.421,7.645-17.056,17.067-17.067c9.426,0,17.067,7.641,17.067,17.067
			C213.375,402.001,205.734,409.642,196.309,409.642z"/>
	</g>
</g>
<g>
	<g>
		<path d="M349.909,93.909c-18.851,0-34.133,15.282-34.133,34.133s15.282,34.133,34.133,34.133
			c18.851,0,34.133-15.282,34.133-34.133C384.022,109.199,368.752,93.929,349.909,93.909z M349.909,145.109
			c-9.426,0-17.067-7.641-17.067-17.067s7.641-17.067,17.067-17.067s17.067,7.641,17.067,17.067
			C366.965,137.464,359.33,145.098,349.909,145.109z"/>
	</g>
</g>
<g>
</g>
<g>
</g>
<g>
</g>
<g>
</g>
<g>
</g>
<g>
</g>
<g>
</g>
<g>
</g>
<g>
</g>
<g>
</g>
<g>
</g>
<g>
</g>
<g>
</g>
<g>
</g>
<g>
</g>
</svg>
