<?xml version="1.0" encoding="utf-8"?>
<!-- Generator: Adobe Illustrator 21.1.0, SVG Export Plug-In . SVG Version: 6.00 Build 0)  -->
<svg version="1.1" id="Layer_1" xmlns="http://www.w3.org/2000/svg" xmlns:xlink="http://www.w3.org/1999/xlink" x="0px" y="0px"
	 viewBox="0 0 43 46" style="enable-background:new 0 0 43 46;" xml:space="preserve">
<style type="text/css">
	.st0{fill:#FFFFFF;}
	.st1{fill:#EB0029;}
</style>
<g>
	<g>
		<g>
			<path class="st0" d="M19.8,5.5c1.2,0,2.2-1,2.2-2.2s-1-2.2-2.2-2.2c-0.3,0-0.6,0.2-0.6,0.6s0.2,0.6,0.6,0.6
				c0.6,0,1.1,0.5,1.1,1.1s-0.5,1.1-1.1,1.1c-1.2,0-2.2,1-2.2,2.2c-0.1,1.2,0.9,2.2,2.2,2.2c0.3,0,0.6-0.2,0.6-0.6
				c0-0.3-0.2-0.6-0.6-0.6c-0.6,0-1.1-0.5-1.1-1.1C18.7,6,19.2,5.5,19.8,5.5z"/>
		</g>
	</g>
	<g>
		<g>
			<path class="st0" d="M24.2,5.4c1.2,0,2.2-1,2.2-2.2S25.4,1,24.2,1c-0.3,0-0.6,0.2-0.6,0.6s0.2,0.6,0.6,0.6c0.6,0,1.1,0.5,1.1,1.1
				s-0.5,1.1-1.1,1.1c-1.2,0-2.2,1-2.2,2.2s1,2.2,2.2,2.2c0.3,0,0.6-0.2,0.6-0.6c0-0.3-0.2-0.6-0.6-0.6c-0.6,0-1.1-0.5-1.1-1.1
				S23.6,5.4,24.2,5.4z"/>
		</g>
	</g>
	<g>
		<g>
			<path class="st0" d="M39,20v5H5v-5H39 M40,19H4v7h36V19L40,19z"/>
		</g>
		<g>
			<path class="st0" d="M37,14v5H3v-5H37 M38,13H2v7h36V13L38,13z"/>
		</g>
		<g>
			<rect x="3.5" y="38.5" class="st0" width="35" height="6"/>
			<path class="st1" d="M38,39v5H4v-5H38 M39,38H3v7h36V38L39,38z"/>
		</g>
		<g>
			<rect x="6.5" y="32.5" class="st0" width="35" height="6"/>
			<path class="st1" d="M41,33v5H7v-5H41 M42,32H6v7h36V32L42,32z"/>
		</g>
		<g>
			<rect x="1.5" y="26.5" class="st0" width="35" height="6"/>
			<path class="st1" d="M36,27v5H2v-5H36 M37,26H1v7h36V26L37,26z"/>
		</g>
	</g>
</g>
</svg>
