<?xml version="1.0" encoding="utf-8"?>
<!-- Generator: Adobe Illustrator 21.1.0, SVG Export Plug-In . SVG Version: 6.00 Build 0)  -->
<svg version="1.1" id="Layer_1" xmlns="http://www.w3.org/2000/svg" xmlns:xlink="http://www.w3.org/1999/xlink" x="0px" y="0px"
	 viewBox="0 0 31 34.6" style="enable-background:new 0 0 31 34.6;" xml:space="preserve">
<path d="M23,28.2l-4.3-1.8v-1.5c4-1.4,6.8-5.2,6.8-9.5c0-5.5-4.5-10-10-10c-5.5,0-10,4.5-10,10c0,4.3,2.8,8.1,6.8,9.5v1.5L8,28.2
	c-0.3,0.1-0.4,0.4-0.4,0.7c0.1,0.3,0.3,0.5,0.6,0.5h14.5c0.3,0,0.5-0.2,0.6-0.5C23.4,28.5,23.3,28.3,23,28.2z M9.1,15.3
	C9.1,11.8,12,9,15.5,9s6.4,2.9,6.4,6.4s-2.9,6.4-6.4,6.4S9.1,18.8,9.1,15.3z M15.5,10.2c-2.8,0-5.2,2.3-5.2,5.2s2.3,5.2,5.2,5.2
	c2.8,0,5.2-2.3,5.2-5.2S18.3,10.2,15.5,10.2z M15.5,18.7c-1.9,0-3.4-1.5-3.4-3.4c0-0.2,0-0.4,0.1-0.6c0.3,0.2,0.6,0.3,0.9,0.3
	c0.8,0,1.5-0.7,1.5-1.5c0-0.5-0.2-0.9-0.6-1.2c0.5-0.2,1-0.4,1.5-0.4c1.9,0,3.4,1.5,3.4,3.4S17.4,18.7,15.5,18.7z"/>
</svg>
