<?xml version="1.0" encoding="utf-8"?>
<!-- Generator: Adobe Illustrator 18.0.0, SVG Export Plug-In . SVG Version: 6.00 Build 0)  -->
<!DOCTYPE svg PUBLIC "-//W3C//DTD SVG 1.1//EN" "http://www.w3.org/Graphics/SVG/1.1/DTD/svg11.dtd">
<svg version="1.1" xmlns="http://www.w3.org/2000/svg" xmlns:xlink="http://www.w3.org/1999/xlink" x="0px" y="0px"
	 viewBox="0 0 98.9 115" style="enable-background:new 0 0 98.9 115;" xml:space="preserve">
<g id="Layer_1">
</g>
<g id="Layer_2">
</g>
<g id="Layer_3">
	<g>
		<g>
			<path d="M49.4,24.5c-13.8,0-25,11.2-25,25s11.2,25,25,25s25-11.2,25-25S63.2,24.5,49.4,24.5z M49.4,63.1
				c-7.5,0-13.6-6.1-13.6-13.6c0-7.5,6.1-13.6,13.6-13.6C56.9,35.9,63,42,63,49.5C63,57,56.9,63.1,49.4,63.1z"/>
		</g>
		<g>
			<path d="M58.8,53.4c-1,2.5-3,4.5-5.5,5.5c-1.3,0.5-2.5,0.8-3.9,0.8c-4.1,0-7.8-2.5-9.4-6.3c-0.3-0.8-0.5-1.6-0.7-2.4l-0.3-2
				l2,0.2c1.1,0.1,2.3-0.1,3.3-0.5c3-1.2,4.7-4.3,4.2-7.5l-0.3-2l2,0.2c3.8,0.4,7,2.8,8.4,6.3C59.8,48.1,59.8,50.9,58.8,53.4z"/>
		</g>
		<g>
			<path d="M85.7,109.6L67,95.2c18.3-7.1,31.3-24.9,31.3-45.7c0-27-22-49-49-49c-27,0-49,22-49,49c0,20.5,12.7,38.2,30.7,45.4
				l-19,14.7c-1,0.8-1.4,2.1-1,3.3c0.4,1.2,1.6,2,2.8,2h70c1.3,0,2.4-0.8,2.8-2C87.1,111.8,86.7,110.4,85.7,109.6z M49.4,92.5
				c-2.2,0-4.4-0.2-6.5-0.5C22.2,88.8,6.4,71,6.4,49.5c0-23.7,19.3-43,43-43c23.7,0,43,19.3,43,43C92.4,71,76.5,88.8,55.9,92
				C53.8,92.3,51.6,92.5,49.4,92.5z"/>
		</g>
		<g>
			<path style="fill:none;stroke:#FFFFFF;stroke-width:3;stroke-linecap:round;stroke-linejoin:round;stroke-miterlimit:10;" d="
				M49.9,105.5"/>
		</g>
		<g>
			<path style="fill:none;stroke:#FFFFFF;stroke-width:3;stroke-linecap:round;stroke-linejoin:round;stroke-miterlimit:10;" d="
				M8.9,105.5"/>
		</g>
	</g>
</g>
</svg>
