<?xml version="1.0" encoding="utf-8"?>
<!-- Generator: Adobe Illustrator 21.1.0, SVG Export Plug-In . SVG Version: 6.00 Build 0)  -->
<svg version="1.1" id="Layer_1" xmlns="http://www.w3.org/2000/svg" xmlns:xlink="http://www.w3.org/1999/xlink" x="0px" y="0px"
	 viewBox="0 0 43 48" style="enable-background:new 0 0 43 48;" xml:space="preserve">
<g>
	<path d="M7.1,16.6c-2.5,4.7-2.5,10.3,0,15l13-7.5L7.1,16.6z"/>
	<path d="M20.8,40.3v-15l-13,7.5C10.6,37.3,15.5,40.1,20.8,40.3z"/>
	<path d="M7.8,15.4l13,7.5v-15C15.5,8.2,10.6,11,7.8,15.4z"/>
	<path d="M22.1,7.9v15l13-7.5C32.3,11,27.4,8.2,22.1,7.9z"/>
	<path d="M22.1,40.3c5.3-0.2,10.2-3,13-7.5l-13-7.5V40.3z"/>
	<path d="M34.9,10.6C31.3,7,26.6,5,21.5,5s-9.8,2-13.4,5.6S2.5,18.9,2.5,24s2,9.8,5.6,13.4S16.4,43,21.5,43s9.8-2,13.4-5.6
		s5.6-8.4,5.6-13.4S38.5,14.2,34.9,10.6z M21.5,41.7c-9.7,0-17.7-7.9-17.7-17.7S11.8,6.3,21.5,6.3S39.2,14.3,39.2,24
		S31.2,41.7,21.5,41.7z"/>
	<path d="M35.9,23.1h-2.8v-2.8c0-0.4-0.3-0.7-0.7-0.7s-0.7,0.3-0.7,0.7v2.8h-2.8c-0.4,0-0.7,0.3-0.7,0.7c0,0.4,0.3,0.7,0.7,0.7h2.8
		v2.8c0,0.4,0.3,0.7,0.7,0.7s0.7-0.3,0.7-0.7v-2.8h2.8c0.4,0,0.7-0.3,0.7-0.7C36.6,23.4,36.3,23.1,35.9,23.1z"/>
</g>
</svg>
