<?xml version="1.0" encoding="utf-8"?>
<!-- Generator: Adobe Illustrator 18.0.0, SVG Export Plug-In . SVG Version: 6.00 Build 0)  -->
<!DOCTYPE svg PUBLIC "-//W3C//DTD SVG 1.1//EN" "http://www.w3.org/Graphics/SVG/1.1/DTD/svg11.dtd">
<svg version="1.1" xmlns="http://www.w3.org/2000/svg" xmlns:xlink="http://www.w3.org/1999/xlink" x="0px" y="0px"
	 viewBox="0 0 118 102.9" style="enable-background:new 0 0 118 102.9;" xml:space="preserve">
<g id="Layer_1">
</g>
<g id="Layer_2">
</g>
<g id="Layer_3">
	<g>
		<path d="M59,102.9c-0.6,0-1.1-0.2-1.6-0.5c-2-1.3-50-31.6-55.8-56.9C0.6,42.1,0,38.5,0,35C0,22.3,6.9,10.7,17.9,4.6
			C23,1.8,28.8,0.3,34.6,0.3c9.2,0,17.9,3.6,24.4,10c6.5-6.4,15.2-10,24.3-10c5.8,0,11.6,1.5,16.7,4.3C111.1,10.7,118,22.4,118,35
			c0,3.6-0.6,7.1-1.7,10.5c-5.8,25.3-53.7,55.6-55.7,56.9C60.1,102.7,59.6,102.9,59,102.9z M34.6,6.3c-4.9,0-9.5,1.2-13.8,3.6
			C11.7,14.9,6,24.5,6,35c0,3,0.5,5.9,1.4,8.8c0,0.1,0.1,0.2,0.1,0.3C12.1,64.6,50.6,90.8,59,96.3c8.4-5.5,46.9-31.8,51.5-52.3
			c0-0.1,0-0.2,0.1-0.3c0.9-2.9,1.4-5.8,1.4-8.8c0-10.4-5.7-20-14.8-25.1c-4.3-2.4-8.9-3.6-13.8-3.6c-8.5,0-16.6,3.8-22,10.4
			c-0.6,0.7-1.4,1.1-2.3,1.1c0,0,0,0,0,0c-0.9,0-1.7-0.4-2.3-1.1C51.2,10.1,43.2,6.3,34.6,6.3z"/>
	</g>
</g>
</svg>
