<?xml version="1.0" encoding="utf-8"?>
<!-- Generator: Adobe Illustrator 21.1.0, SVG Export Plug-In . SVG Version: 6.00 Build 0)  -->
<svg version="1.1" id="Layer_1" xmlns="http://www.w3.org/2000/svg" xmlns:xlink="http://www.w3.org/1999/xlink" x="0px" y="0px"
	 viewBox="0 0 24 24" style="enable-background:new 0 0 24 24;" xml:space="preserve">
<style type="text/css">
	.st0{fill:#FFFFFF;}
</style>
<g>
	<path class="st0" d="M21.5,2.1c-0.5-0.5-1.2-0.8-1.9-0.8H4c-0.7,0-1.4,0.3-1.9,0.8C1.6,2.7,1.3,3.3,1.3,4v15.6
		c0,0.7,0.3,1.4,0.8,1.9c0.5,0.5,1.2,0.8,1.9,0.8h15.6c0.7,0,1.4-0.3,1.9-0.8c0.5-0.5,0.8-1.2,0.8-1.9V4C22.3,3.3,22.1,2.7,21.5,2.1
		z M8.9,8.9c0.8-0.8,1.8-1.2,3-1.2c1.2,0,2.2,0.4,3,1.2c0.8,0.8,1.2,1.8,1.2,2.9c0,1.1-0.4,2.1-1.2,2.9c-0.8,0.8-1.8,1.2-3,1.2
		c-1.2,0-2.1-0.4-3-1.2c-0.8-0.8-1.2-1.8-1.2-2.9C7.6,10.7,8,9.7,8.9,8.9z M20,19.1c0,0.2-0.1,0.4-0.2,0.6c-0.2,0.2-0.4,0.2-0.6,0.2
		H4.5c-0.2,0-0.4-0.1-0.6-0.2c-0.2-0.2-0.2-0.4-0.2-0.6v-8.9h1.9c-0.2,0.6-0.3,1.2-0.3,1.8c0,1.8,0.6,3.2,1.9,4.5
		c1.3,1.2,2.8,1.9,4.6,1.9c1.2,0,2.3-0.3,3.3-0.8c1-0.6,1.8-1.3,2.4-2.3c0.6-1,0.9-2,0.9-3.2c0-0.6-0.1-1.2-0.3-1.8H20L20,19.1
		L20,19.1L20,19.1z M20,6.9c0,0.3-0.1,0.5-0.3,0.7c-0.2,0.2-0.4,0.3-0.7,0.3h-2.4c-0.3,0-0.5-0.1-0.7-0.3c-0.2-0.2-0.3-0.4-0.3-0.7
		V4.6c0-0.3,0.1-0.5,0.3-0.7c0.2-0.2,0.4-0.3,0.7-0.3H19c0.3,0,0.5,0.1,0.7,0.3C19.9,4.1,20,4.4,20,4.6V6.9z"/>
</g>
</svg>
