<?xml version="1.0" encoding="utf-8"?>
<!-- Generator: Adobe Illustrator 18.0.0, SVG Export Plug-In . SVG Version: 6.00 Build 0)  -->
<!DOCTYPE svg PUBLIC "-//W3C//DTD SVG 1.1//EN" "http://www.w3.org/Graphics/SVG/1.1/DTD/svg11.dtd">
<svg version="1.1" id="Layer_1" xmlns="http://www.w3.org/2000/svg" xmlns:xlink="http://www.w3.org/1999/xlink" x="0px" y="0px"
	 viewBox="0 0 36 36" enable-background="new 0 0 36 36" xml:space="preserve">
<path d="M24.6,3.4H11.4C7,3.4,3.4,7,3.4,11.4v13.1c0,4.5,3.6,8.1,8.1,8.1h13.1c4.5,0,8.1-3.6,8.1-8.1V11.4C32.6,7,29,3.4,24.6,3.4
	L24.6,3.4z M30,24.6c0,3-2.5,5.5-5.5,5.5H11.4c-3,0-5.5-2.5-5.5-5.5V11.4C6,8.4,8.4,6,11.4,6h13.1c3,0,5.5,2.5,5.5,5.5V24.6z
	 M30,24.6"/>
<path d="M18,10.5c-4.2,0-7.5,3.4-7.5,7.5c0,4.2,3.4,7.5,7.5,7.5c4.2,0,7.5-3.4,7.5-7.5C25.5,13.8,22.2,10.5,18,10.5L18,10.5z
	 M18,22.9c-2.7,0-4.9-2.2-4.9-4.9c0-2.7,2.2-4.9,4.9-4.9s4.9,2.2,4.9,4.9C22.9,20.7,20.7,22.9,18,22.9L18,22.9z M18,22.9"/>
<path d="M25.9,8.3c-0.5,0-1,0.2-1.3,0.6c-0.4,0.4-0.6,0.8-0.6,1.3c0,0.5,0.2,1,0.6,1.3c0.4,0.4,0.8,0.6,1.3,0.6c0.5,0,1-0.2,1.3-0.6
	c0.4-0.4,0.6-0.8,0.6-1.3c0-0.5-0.2-1-0.6-1.3C26.8,8.5,26.4,8.3,25.9,8.3L25.9,8.3z M25.9,8.3"/>
</svg>
