<?xml version="1.0" encoding="utf-8"?>
<!-- Generator: Adobe Illustrator 21.1.0, SVG Export Plug-In . SVG Version: 6.00 Build 0)  -->
<svg version="1.1" id="Layer_1" xmlns="http://www.w3.org/2000/svg" xmlns:xlink="http://www.w3.org/1999/xlink" x="0px" y="0px"
	 viewBox="0 0 20 20" style="enable-background:new 0 0 20 20;" xml:space="preserve">
<path d="M10,13.7c0.7,0,1.3-0.6,1.3-1.3c0-0.7-0.6-1.3-1.3-1.3c-0.7,0-1.3,0.6-1.3,1.3C8.7,13.1,9.3,13.7,10,13.7 M14,7.7
	c0.7,0,1.3,0.6,1.3,1.3v6.7c0,0.7-0.6,1.3-1.3,1.3H6c-0.7,0-1.3-0.6-1.3-1.3V9c0-0.7,0.6-1.3,1.3-1.3h0.7V6.3C6.7,4.5,8.2,3,10,3
	s3.3,1.5,3.3,3.3v1.3H14 M10,4.3c-1.1,0-2,0.9-2,2v1.3h4V6.3C12,5.2,11.1,4.3,10,4.3z"/>
</svg>
