<?xml version="1.0" encoding="utf-8"?>
<!-- Generator: Adobe Illustrator 18.0.0, SVG Export Plug-In . SVG Version: 6.00 Build 0)  -->
<!DOCTYPE svg PUBLIC "-//W3C//DTD SVG 1.1//EN" "http://www.w3.org/Graphics/SVG/1.1/DTD/svg11.dtd">
<svg version="1.1" xmlns="http://www.w3.org/2000/svg" xmlns:xlink="http://www.w3.org/1999/xlink" x="0px" y="0px"
	 viewBox="0 0 96.9 115.9" style="enable-background:new 0 0 96.9 115.9;" xml:space="preserve">
<g id="Layer_1">
</g>
<g id="Layer_2">
</g>
<g id="Layer_3">
	<g>
		<g>
			<path d="M88.1,41h-9.9c0.1,0-0.3-0.9-0.3-1.2V21.9C77.9,9.5,68.5,0,56.2,0H42.4C29.6,0,18.9,9.7,18.9,21.9v17.9
				c0,0.3,0.4,1.2,0.5,1.2H9.4c-5.1,0-9.5,3.9-9.5,8.9v56.7c0,5.1,4.5,9.4,9.5,9.4h78.7c5,0,8.8-4.3,8.8-9.4V49.9
				C96.9,44.9,93.1,41,88.1,41z M30.9,39.8V21.9c0-5.6,5.4-9.9,11.5-9.9h13.8c5.8,0,9.7,4,9.7,9.9v17.9c0,0.3,0.4,1.2,0.5,1.2H31.2
				C31.2,41,30.9,40.1,30.9,39.8z M51.9,80.1v9.8c0,2.2-1.8,3.9-4,3.9c-2.2,0-4-1.8-4-3.9v-9.8c-3-1.4-4.1-4.3-4.1-7.5
				c0-4.7,4.2-8.5,8.8-8.5c4.7,0,8.3,3.8,8.3,8.5C56.8,75.8,54.9,78.6,51.9,80.1z"/>
		</g>
	</g>
</g>
</svg>
