<svg id="Layer_1" data-name="Layer 1" xmlns="http://www.w3.org/2000/svg" viewBox="0 0 84.8 48"><defs><style>.cls-1{fill:#fff;}.cls-2{fill:#eb0029;}</style></defs><path class="cls-1" d="M28.59,7c0,2.62-2,4.86-5.33,4.86H21.39v4H17.64V2.14h5.62C26.56,2.14,28.59,4.36,28.59,7ZM25.21,7c0-.86-.49-1.68-2.09-1.68H21.39V8.68h1.74C24.72,8.68,25.21,7.84,25.21,7Z"/><path class="cls-1" d="M33.23,6.43V15.8H30V6.43ZM30,3.72A1.62,1.62,0,1,1,31.6,5.34,1.62,1.62,0,0,1,30,3.72Z"/><path class="cls-1" d="M43,12.83v3H35.19V13.26l3.44-3.88h-3.2V6.43h7.36V9l-3.44,3.86Z"/><path class="cls-1" d="M52.48,12.83v3H44.71V13.26l3.44-3.88h-3.2V6.43H52.3V9l-3.44,3.86Z"/><path class="cls-1" d="M62.73,9.79v6H59.45v-.92a3.29,3.29,0,0,1-2.75,1.21,2.8,2.8,0,0,1-2.83-2.75,3,3,0,0,1,2.67-3.18,24.09,24.09,0,0,1,2.91-.25,1.22,1.22,0,0,0-1.37-1.23,6.59,6.59,0,0,0-2.87.76l-.9-2.13a8,8,0,0,1,4.18-1.19C60.58,6.12,62.73,6.9,62.73,9.79Zm-3.28,2.85v-1a3.87,3.87,0,0,0-1.87.35.92.92,0,0,0,.66,1.66C59.18,13.63,59.45,13,59.45,12.64Z"/><rect class="cls-1" x="17.6" y="20.58" width="45.16" height="1.85"/><path class="cls-2" d="M11.88,38.73a35.77,35.77,0,0,1,7.19-.64,33.25,33.25,0,0,1,7,.81,25.8,25.8,0,0,1,6.11,2.18,13.61,13.61,0,0,1,4.41,3.46,2.28,2.28,0,0,1,.68,1.36q0,.47-.68-.21a15.2,15.2,0,0,0-5.22-3.84,23.24,23.24,0,0,0-7.08-2,28.26,28.26,0,0,0-8.06.23,26.88,26.88,0,0,0-8.14,2.78l-1,.59A4.84,4.84,0,0,1,6,43.93,2.36,2.36,0,0,1,5,44a2,2,0,0,1-1-.55,1.42,1.42,0,0,1-.53-.66.7.7,0,0,1,.09-.53A1.79,1.79,0,0,1,4,41.75q.34-.25.72-.51a45.27,45.27,0,0,0,3.84-3.88q1.93-2.18,3.92-4.48t4.14-4.58a51.92,51.92,0,0,1,4.45-4.24,31.43,31.43,0,0,1,4.88-3.39,19.74,19.74,0,0,1,5.45-2.08,9.46,9.46,0,0,1,2.76-.17,7.87,7.87,0,0,1,2,.42,2.38,2.38,0,0,1,1,.57q.21.28-.34.23a12.41,12.41,0,0,0-5.09.89A21.89,21.89,0,0,0,27,23.12a33.38,33.38,0,0,0-4.26,3.69q-2,2.08-3.9,4.24l-3.63,4.18A45.07,45.07,0,0,1,11.88,38.73Z"/><path class="cls-2" d="M36.08,32.66q.81-.59.89-.38t-.3.81a12.61,12.61,0,0,1-1.08,1.48A15,15,0,0,1,34,36.18a13.53,13.53,0,0,1-1.78,1.36,4.66,4.66,0,0,1-1.74.72A2.87,2.87,0,0,1,29.08,38a6.62,6.62,0,0,1-1.72-1A6.31,6.31,0,0,1,26,35.38a2.52,2.52,0,0,1-.38-1.82,3.44,3.44,0,0,1,.64-1.46,6.82,6.82,0,0,1,1.15-1.23A6.35,6.35,0,0,1,28.68,30a2.68,2.68,0,0,1,1.12-.32,2.22,2.22,0,0,1,.87.21,3.63,3.63,0,0,1,.89.55,2.61,2.61,0,0,1,.64.78,1.62,1.62,0,0,1,.19.91,2.4,2.4,0,0,1-.64,1.08,14.35,14.35,0,0,1-1.23,1.21,20.65,20.65,0,0,1-1.78,1.4,5.25,5.25,0,0,0,3-.59A19.78,19.78,0,0,0,36.08,32.66Zm-5-.81q-.17-.13-.78.19a6.33,6.33,0,0,0-1.21.83,5.33,5.33,0,0,0-1,1.12,1,1,0,0,0-.19,1,5.43,5.43,0,0,0,.83-.59q.57-.47,1.15-1t1-1Q31.2,32,31.08,31.86Z"/><path class="cls-2" d="M49.28,28.5l-2.95.06q-1.46,0-2.86.11a13.2,13.2,0,0,0-1.19,1q-.72.68-1.48,1.48t-1.51,1.7A19.57,19.57,0,0,0,38,34.53a5.82,5.82,0,0,0-.7,1.34q-.19.57.11.78t1.19-.38q.93-.55,2-1.32t2.08-1.51a15.64,15.64,0,0,1,1.38-1q.76-.51,1.1-.21t0,.81q-.21.25-1,1.08a21,21,0,0,1-1.89,1.7A18.15,18.15,0,0,1,40,37.41a4.18,4.18,0,0,1-2,.68,2.37,2.37,0,0,1-2.27-1,3.68,3.68,0,0,1-.32-2.38,10.5,10.5,0,0,1,1-3.05,17.32,17.32,0,0,1,1.82-2.95q-2-.42-1.53-.93a8.08,8.08,0,0,1,2.67-.3,11,11,0,0,1,1.27-1,2.12,2.12,0,0,1,1.15-.38,2,2,0,0,1,1.1.4,3.4,3.4,0,0,1,.93.91h2.59q1.36,0,2.8,0Zm-2-1a11,11,0,0,1,1.27-1,2.12,2.12,0,0,1,1.15-.38,2,2,0,0,1,1.1.4,3.39,3.39,0,0,1,.93.91q2.16,0,4.62,0t5-.13q3.22-.08,5.9-.25t4.69-.34l3.27-.3q1.25-.13,1.63-.13a6.21,6.21,0,0,1,1.59.23,11.08,11.08,0,0,1,1.59.55,4.32,4.32,0,0,1,1.12.68q.4.36.15.66t-1.44.19q-1.32,0-3.46,0l-5-.06-6.15-.06q-3.29,0-6.83,0t-7.06.19a13.12,13.12,0,0,0-1.19,1q-.72.68-1.48,1.48t-1.51,1.7a19.59,19.59,0,0,0-1.25,1.65,5.85,5.85,0,0,0-.7,1.34q-.19.57.11.78t1.19-.38q.93-.55,2-1.32t2.08-1.51a15.46,15.46,0,0,1,1.38-1q.76-.51,1.1-.21t0,.81q-.21.25-1,1.08a21,21,0,0,1-1.89,1.7,18.16,18.16,0,0,1-2.25,1.55,4.18,4.18,0,0,1-2,.68,2.37,2.37,0,0,1-2.27-1,3.68,3.68,0,0,1-.32-2.38,10.45,10.45,0,0,1,1-3.05,17.28,17.28,0,0,1,1.82-2.95Z"/><path class="cls-2" d="M64.12,32.53q.59-.55,1-.28t-.23,1q-.34.38-.93,1.12t-1.23,1.51a14.86,14.86,0,0,1-1.27,1.36,2.48,2.48,0,0,1-1.06.68,3.22,3.22,0,0,1-1.55-.17,4.83,4.83,0,0,1-1.72-.89L56,37.6a3.88,3.88,0,0,1-1,.53,3.2,3.2,0,0,1-1.15,0,4.48,4.48,0,0,1-1.34-.49,5.1,5.1,0,0,1-1.17-.87A2.2,2.2,0,0,1,51,33.83a10.44,10.44,0,0,1,1.29-1.89,11.68,11.68,0,0,1,1.59-1.55,2.86,2.86,0,0,1,1.29-.7,2.33,2.33,0,0,1,.74,0,3.7,3.7,0,0,1,.89.3,3.92,3.92,0,0,1,.81.51,1.5,1.5,0,0,1,.49.68,1.47,1.47,0,0,1,1-.47c.23.06.47.13.72.21a4.59,4.59,0,0,1,.7.3,1.77,1.77,0,0,1,.53.42.68.68,0,0,1,.17.55,2,2,0,0,1-.34.91q-.34.57-.72,1.17t-.64,1.06c-.17.31-.2.51-.09.59s.28,0,.57-.19.66-.44,1.08-.76.9-.7,1.42-1.12S63.61,33,64.12,32.53ZM53.47,36.61q.47.25,1.17-.28A7.45,7.45,0,0,0,56,35a10.64,10.64,0,0,0,1.08-1.65,3.14,3.14,0,0,0,.45-1.27.4.4,0,0,0-.59-.21,3.23,3.23,0,0,0-.93.64,9.47,9.47,0,0,0-1,1.15A14.76,14.76,0,0,0,54,34.93a7,7,0,0,0-.57,1.1Q53.26,36.52,53.47,36.61Z"/></svg>