<?xml version="1.0" encoding="utf-8"?>
<!-- Generator: Adobe Illustrator 21.1.0, SVG Export Plug-In . SVG Version: 6.00 Build 0)  -->
<svg version="1.1" id="Layer_1" xmlns="http://www.w3.org/2000/svg" xmlns:xlink="http://www.w3.org/1999/xlink" x="0px" y="0px"
	 viewBox="0 0 260 148" enable-background="new 0 0 260 148" xml:space="preserve">
<g>
	<g>
		<path d="M83.9,16.2c0,8.7-6.8,16.2-17.7,16.2h-6.2v13.2H47.4V0.1h18.7C77.1,0.1,83.9,7.5,83.9,16.2z M72.6,16.2
			c0-2.9-1.6-5.6-7-5.6h-5.8v11.2h5.8C71,21.9,72.6,19.1,72.6,16.2z"/>
		<path d="M99.3,14.4v31.2H88.4V14.4H99.3z M88.5,5.4c0-3,2.4-5.4,5.4-5.4c3,0,5.4,2.4,5.4,5.4s-2.4,5.4-5.4,5.4
			C90.9,10.8,88.5,8.4,88.5,5.4z"/>
		<path d="M131.7,35.7v9.9h-25.9v-8.4l11.4-12.9h-10.7v-9.8h24.5v8.4l-11.4,12.9H131.7z"/>
		<path d="M163.4,35.7v9.9h-25.9v-8.4L149,24.2h-10.7v-9.8h24.5v8.4l-11.4,12.9H163.4z"/>
		<path d="M197.5,25.6c0,9.2,0,20,0,20h-10.9v-3.1c-1.9,2.6-5.1,4-9.2,4c-1.8,0-9.2-1.2-9.4-9.2c-0.2-6.8,4.4-9.8,8.9-10.6
			c2.9-0.5,7.5-0.8,9.7-0.8c0-1.3-0.7-4.1-4.5-4.1c-4.2,0-8.1,1.8-9.6,2.5l-3-7.1c2.3-1.6,7.8-4,13.9-4
			C190.4,13.4,197.5,16,197.5,25.6z M186.6,35.1c0-1,0-3.4,0-3.4s-4.4-0.2-6.2,1.2c-2.3,1.6-1.6,5.5,2.2,5.5
			C185.7,38.4,186.6,36.4,186.6,35.1z"/>
	</g>
	<rect x="47.3" y="61.5" width="150.3" height="6.1"/>
	<g>
		<path fill="#EB0029" d="M28.2,122c7.8-1.5,15.8-2.2,23.9-2.1c8.1,0.1,15.9,1,23.4,2.7c7.4,1.7,14.2,4.1,20.3,7.3
			c6.1,3.2,11,7,14.7,11.5c1.6,2,2.4,3.5,2.3,4.5c-0.1,1-0.8,0.8-2.3-0.7c-4.4-5.2-10.2-9.4-17.4-12.8c-7.2-3.3-15-5.5-23.6-6.6
			c-8.6-1-17.5-0.8-26.8,0.8c-9.3,1.6-18.4,4.6-27.1,9.3c-1.1,0.7-2.3,1.3-3.5,2c-1.2,0.7-2.4,1.2-3.5,1.5c-1.2,0.3-2.3,0.4-3.5,0.2
			c-1.1-0.2-2.3-0.8-3.4-1.8c-1-0.8-1.6-1.6-1.8-2.2c-0.1-0.6,0-1.2,0.3-1.8c0.3-0.6,0.9-1.1,1.6-1.7c0.8-0.6,1.6-1.1,2.4-1.7
			c4.2-3.8,8.5-8.1,12.8-12.9c4.3-4.8,8.6-9.8,13.1-14.9c4.4-5.1,9-10.2,13.8-15.3c4.8-5.1,9.7-9.8,14.8-14.1
			c5.1-4.3,10.5-8.1,16.2-11.3c5.7-3.2,11.7-5.5,18.1-6.9c3.4-0.7,6.4-0.8,9.2-0.6c2.7,0.3,4.9,0.8,6.6,1.4c1.7,0.7,2.8,1.3,3.2,1.9
			c0.5,0.6,0.1,0.9-1.1,0.8c-5.9-0.2-11.6,0.8-16.9,3c-5.4,2.2-10.5,5-15.5,8.6c-4.9,3.6-9.7,7.7-14.2,12.3
			c-4.5,4.6-8.9,9.3-13,14.1c-4.1,4.8-8.2,9.4-12.1,13.9C35.6,114.8,31.8,118.7,28.2,122z"/>
		<path fill="#EB0029" d="M108.8,101.7c1.8-1.3,2.8-1.7,3-1.3c0.2,0.5-0.1,1.4-1,2.7c-0.8,1.4-2,3.1-3.6,4.9
			c-1.6,1.9-3.3,3.7-5.2,5.4s-3.9,3.2-5.9,4.5c-2.1,1.3-4,2.1-5.8,2.4c-1.2,0.2-2.8-0.1-4.8-0.9c-2-0.8-3.9-2-5.7-3.5
			c-1.8-1.5-3.4-3.2-4.6-5.2s-1.6-4-1.3-6.1c0.3-1.7,1-3.3,2.1-4.9c1.1-1.6,2.4-2.9,3.8-4.1c1.4-1.2,2.8-2.1,4.3-2.8
			c1.5-0.7,2.7-1.1,3.7-1.1c0.8,0,1.8,0.2,2.9,0.7c1.1,0.5,2.1,1.1,3,1.8c0.9,0.8,1.6,1.6,2.1,2.6c0.5,1,0.7,2,0.6,3
			c-0.2,1-0.9,2.2-2.1,3.6c-1.2,1.4-2.6,2.7-4.1,4c-1.7,1.5-3.7,3.1-5.9,4.7c2.1,0.6,5.4-0.1,10-2
			C98.9,108.5,103.7,105.6,108.8,101.7z M92.1,99.1c-0.4-0.3-1.2-0.1-2.6,0.6c-1.4,0.7-2.7,1.6-4,2.8c-1.3,1.1-2.4,2.4-3.3,3.7
			c-0.9,1.4-1.1,2.5-0.6,3.5c0.6-0.3,1.5-0.9,2.8-2c1.3-1,2.5-2.2,3.8-3.4c1.3-1.2,2.3-2.3,3.2-3.3C92.1,100,92.4,99.3,92.1,99.1z"
			/>
		<path fill="#EB0029" d="M152.7,87.9c-3.3,0.1-6.6,0.2-9.8,0.2c-3.2,0-6.4,0.2-9.5,0.4c-1,0.8-2.4,1.9-4,3.4
			c-1.6,1.5-3.2,3.2-4.9,4.9c-1.7,1.8-3.4,3.7-5,5.6c-1.6,2-3,3.8-4.2,5.5c-1.1,1.7-1.9,3.2-2.3,4.4c-0.4,1.3-0.3,2.1,0.4,2.6
			c0.6,0.4,1.9,0,4-1.3c2.1-1.2,4.3-2.7,6.7-4.4c2.4-1.7,4.7-3.4,6.9-5c2.2-1.6,3.7-2.7,4.6-3.2c1.7-1.1,2.9-1.4,3.7-0.7
			c0.8,0.7,0.7,1.6-0.1,2.7c-0.5,0.6-1.6,1.8-3.4,3.6c-1.8,1.8-3.9,3.7-6.3,5.6c-2.4,1.9-4.9,3.6-7.5,5.2c-2.6,1.5-4.8,2.3-6.7,2.3
			c-3.9,0-6.4-1.1-7.6-3.2c-1.2-2.1-1.5-4.8-1.1-7.9c0.5-3.2,1.6-6.5,3.4-10.2c1.8-3.6,3.8-6.9,6.1-9.8c-4.4-0.9-6.1-2-5.1-3.1
			c0.5-0.5,3.4-0.8,8.9-1c1.5-1.3,2.9-2.4,4.2-3.2c1.3-0.8,2.6-1.3,3.8-1.3c1.1,0,2.4,0.4,3.7,1.3c1.3,0.9,2.4,1.9,3.1,3
			c2.7,0,5.6,0,8.6,0c3,0,6.1,0,9.3-0.1L152.7,87.9z M146.1,84.7c1.5-1.3,2.9-2.4,4.2-3.2c1.3-0.8,2.6-1.3,3.8-1.3
			c1.1,0,2.4,0.4,3.7,1.3c1.3,0.9,2.4,1.9,3.1,3c4.8,0,9.9,0,15.4-0.1c5.5-0.1,11-0.2,16.7-0.4c7.2-0.2,13.7-0.5,19.6-0.8
			c5.9-0.4,11.1-0.8,15.6-1.1c4.5-0.4,8.1-0.7,10.9-1c2.8-0.3,4.6-0.4,5.4-0.4c1.6,0,3.4,0.3,5.3,0.8c1.9,0.5,3.7,1.1,5.3,1.8
			c1.6,0.7,2.8,1.5,3.7,2.3c0.9,0.8,1.1,1.5,0.5,2.2c-0.3,0.4-1.9,0.6-4.8,0.6c-2.9,0-6.8,0-11.5,0c-4.8,0-10.3-0.1-16.7-0.2
			c-6.4-0.1-13.2-0.2-20.5-0.2c-7.3,0-14.9,0-22.7,0c-7.9,0-15.7,0.3-23.5,0.6c-1,0.8-2.4,1.9-4,3.4c-1.6,1.5-3.2,3.2-4.9,4.9
			c-1.7,1.8-3.4,3.7-5,5.6c-1.6,2-3,3.8-4.2,5.5c-1.1,1.7-1.9,3.2-2.3,4.4c-0.4,1.3-0.3,2.1,0.4,2.6c0.6,0.4,1.9,0,4-1.3
			c2.1-1.2,4.3-2.7,6.7-4.4s4.7-3.4,6.9-5c2.2-1.6,3.7-2.7,4.6-3.2c1.7-1.1,2.9-1.4,3.7-0.7c0.8,0.7,0.7,1.6-0.1,2.7
			c-0.5,0.6-1.6,1.8-3.4,3.6c-1.8,1.8-3.9,3.7-6.3,5.6c-2.4,1.9-4.9,3.6-7.5,5.2c-2.6,1.5-4.8,2.3-6.7,2.3c-3.9,0-6.4-1.1-7.6-3.2
			c-1.2-2.1-1.5-4.8-1.1-7.9c0.5-3.2,1.6-6.5,3.4-10.2c1.8-3.6,3.8-6.9,6.1-9.8L146.1,84.7z"/>
		<path fill="#EB0029" d="M202.1,101.3c1.3-1.2,2.4-1.5,3.2-0.9c0.8,0.6,0.5,1.7-0.8,3.3c-0.8,0.8-1.8,2.1-3.1,3.7
			c-1.3,1.6-2.7,3.3-4.1,5c-1.4,1.7-2.8,3.2-4.2,4.5c-1.4,1.3-2.6,2.1-3.5,2.3c-1.2,0.3-2.9,0.1-5.2-0.6c-2.2-0.7-4.1-1.6-5.7-3
			c-1.2,0.8-2.4,1.7-3.5,2.5c-1.1,0.8-2.3,1.4-3.4,1.8c-1,0.2-2.3,0.1-3.8-0.1c-1.5-0.3-3-0.8-4.4-1.6c-1.5-0.8-2.8-1.8-3.9-2.9
			s-1.9-2.4-2.3-4c-0.4-1.6,0-3.5,1.2-5.7c1.2-2.2,2.6-4.3,4.3-6.3c1.7-2,3.5-3.7,5.3-5.2c1.8-1.5,3.3-2.2,4.3-2.3
			c0.7-0.1,1.5,0,2.5,0.1c1,0.2,2,0.5,3,1c1,0.5,1.9,1,2.7,1.7c0.8,0.7,1.3,1.4,1.6,2.3c1.3-1.1,2.4-1.6,3.4-1.6
			c0.8,0.2,1.6,0.4,2.4,0.7c0.8,0.3,1.6,0.6,2.3,1c0.7,0.4,1.3,0.8,1.8,1.4c0.5,0.6,0.7,1.2,0.6,1.8c0,0.8-0.4,1.8-1.1,3
			c-0.8,1.3-1.6,2.6-2.4,3.9c-0.8,1.3-1.6,2.5-2.1,3.5c-0.6,1-0.7,1.7-0.3,2c0.3,0.2,0.9,0,1.9-0.6c1-0.6,2.2-1.5,3.6-2.5
			c1.4-1.1,3-2.3,4.7-3.7C198.7,104.4,200.5,102.9,202.1,101.3z M166.7,114.9c1,0.6,2.3,0.3,3.9-0.9c1.6-1.2,3-2.7,4.4-4.4
			c1.4-1.8,2.6-3.6,3.6-5.5c1-1.9,1.5-3.3,1.5-4.2c-0.4-0.8-1-1.1-2-0.7c-0.9,0.4-2,1.1-3.1,2.1c-1.1,1-2.3,2.3-3.5,3.8
			c-1.2,1.5-2.2,2.9-3,4.3c-0.8,1.4-1.5,2.6-1.9,3.7C166.2,114.1,166.2,114.7,166.7,114.9z"/>
	</g>
</g>
</svg>
