<?xml version="1.0" encoding="utf-8"?>
<!-- Generator: Adobe Illustrator 18.0.0, SVG Export Plug-In . SVG Version: 6.00 Build 0)  -->
<!DOCTYPE svg PUBLIC "-//W3C//DTD SVG 1.1//EN" "http://www.w3.org/Graphics/SVG/1.1/DTD/svg11.dtd">
<svg version="1.1" xmlns="http://www.w3.org/2000/svg" xmlns:xlink="http://www.w3.org/1999/xlink" x="0px" y="0px"
	 viewBox="0 0 132 148" style="enable-background:new 0 0 132 148;" xml:space="preserve">
<g id="Layer_1">
</g>
<g id="Layer_2">
</g>
<g id="Layer_3">
	<g>
		<g>
			<g>
				<path style="fill:#FFFFFF;" d="M129,79h-15V60.6c0-1.7-1.3-2.6-3-2.6H3c-1.7,0-3,1-3,2.6v21C0,83.3,1.3,85,3,85h15v15H9
					c-1.7,0-3,1-3,2.6v21c0,1.7,1.3,3.4,3,3.4h5v17.6c0,1.7,1.3,3.4,3,3.4h108c1.7,0,3-1.7,3-3.4v-21c0-1.7-1.3-2.6-3-2.6h-5v-15h9
					c1.7,0,3-1.7,3-3.4v-21C132,80,130.7,79,129,79z M6,79V64h102v15H6z M122,127v15H20v-15H122z M114,121H12v-15h102V121z M126,100
					H24V85h102V100z"/>
			</g>
		</g>
		<g>
			<g>
				<path style="fill:#FFFFFF;" d="M48,38.5l-2.5-1.7l4.3-6.3c1-1.5,0.7-3.6-0.9-4.7L46.3,24c-1.4-1-2.3-2.4-2.7-4.1
					c-0.3-1.7,0-3.4,1-4.8l3.1-4.6l2.5,1.7l-3.1,4.6c-1,1.5-0.7,3.6,0.9,4.7l2.7,1.8c2.9,2,3.6,5.9,1.6,8.8L48,38.5z"/>
			</g>
			<g>
				<path style="fill:#FFFFFF;" d="M86,38.5l-2.5-1.7l4.3-6.3c1-1.5,0.7-3.6-0.9-4.7L84.2,24c-1.4-1-2.3-2.4-2.7-4.1
					c-0.3-1.7,0-3.4,1-4.8l3.1-4.6l2.5,1.7l-3.1,4.6c-1,1.5-0.7,3.6,0.9,4.7l2.7,1.8c2.9,2,3.6,5.9,1.6,8.8L86,38.5z"/>
			</g>
			<g>
				<path style="fill:#FFFFFF;" d="M66.1,28.4l-2.5-1.7l4.3-6.3c1-1.5,0.7-3.6-0.9-4.7l-2.7-1.8c-1.4-1-2.3-2.4-2.7-4.1
					c-0.3-1.7,0-3.4,1-4.8l3.1-4.6l2.5,1.7l-3.1,4.6c-1,1.5-0.7,3.6,0.9,4.7l2.7,1.8c2.9,2,3.6,5.9,1.6,8.8L66.1,28.4z"/>
			</g>
		</g>
	</g>
</g>
</svg>
