<?xml version="1.0" encoding="utf-8"?>
<!-- Generator: Adobe Illustrator 21.1.0, SVG Export Plug-In . SVG Version: 6.00 Build 0)  -->
<svg version="1.1" id="Layer_1" xmlns="http://www.w3.org/2000/svg" xmlns:xlink="http://www.w3.org/1999/xlink" x="0px" y="0px"
	 viewBox="0 0 43 48" style="enable-background:new 0 0 43 48;" xml:space="preserve">
<path d="M5.5,12.9c-0.6,0.6-0.7,1.4-0.4,2.2l14.1,28.4c0.3,0.6,1,1,1.7,1s1.4-0.4,1.7-1l14.1-28.4c0.4-0.7,0.2-1.6-0.4-2.2
	C32.3,8.8,26.8,6.5,21,6.5S9.7,8.8,5.5,12.9z M14.2,24.8l-1.5-3c0.2-0.4,0.5-0.8,1-1c0.5-0.3,1.1-0.3,1.6-0.2c0.6,0.2,1,0.5,1.3,1.1
	c0.3,0.5,0.3,1.1,0.2,1.6c-0.2,0.6-0.5,1-1.1,1.3C15.2,24.8,14.7,24.9,14.2,24.8z M21,38.4l-5-10c0.5-0.1,1-0.3,1.4-0.5
	c1.4-0.7,2.4-2,2.9-3.5c0.5-1.5,0.3-3.1-0.4-4.5c-0.7-1.4-2-2.4-3.5-2.9c-0.8-0.2-1.6-0.3-2.3-0.2c2.1-1.1,4.5-1.8,6.9-1.8
	c3.6,0,7.1,1.3,9.8,3.8l-3.4,6.8c-0.9-0.8-2-1.4-3.3-1.4c-2.6,0-4.7,2.1-4.7,4.8c0,2.4,1.7,4.3,4,4.7L21,38.4z M23.1,29
	c0-0.6,0.4-1,1-1c0.5,0,1,0.5,1,1s-0.4,1-1,1C23.5,30.1,23.1,29.6,23.1,29z M32.5,15.4c-3.2-2.6-7.3-4.1-11.5-4.1
	c-4.2,0-8.2,1.4-11.5,4.1l-0.4-0.7c3.3-2.8,7.4-4.4,11.8-4.4s8.5,1.6,11.8,4.4L32.5,15.4z"/>
</svg>
