<?xml version="1.0" encoding="utf-8"?>
<!-- Generator: Adobe Illustrator 18.0.0, SVG Export Plug-In . SVG Version: 6.00 Build 0)  -->
<!DOCTYPE svg PUBLIC "-//W3C//DTD SVG 1.1//EN" "http://www.w3.org/Graphics/SVG/1.1/DTD/svg11.dtd">
<svg version="1.1" id="Layer_1" xmlns="http://www.w3.org/2000/svg" xmlns:xlink="http://www.w3.org/1999/xlink" x="0px" y="0px"
	 viewBox="0 0 960 223" style="enable-background:new 0 0 960 223;" xml:space="preserve">
<g>
	<g>
		<path style="fill:#fff;" d="M83,99.5c0,19.7-15.3,36.7-40.2,36.7H28.7V166H0.4V63h42.4C67.7,63,83,79.7,83,99.5z M57.5,99.5c0-6.5-3.7-12.7-15.8-12.7
			H28.7v25.5h13.1C53.9,112.3,57.5,106,57.5,99.5z"/>
		<path style="fill:#fff;" d="M118.1,95.4V166H93.3V95.4H118.1z M93.5,74.9c0-6.8,5.4-12.2,12.2-12.2s12.2,5.5,12.2,12.2s-5.4,12.2-12.2,12.2
			S93.5,81.7,93.5,74.9z"/>
		<path style="fill:#fff;" d="M191.4,143.7V166h-58.6v-19.1l25.9-29.3h-24.2V95.4h55.5v19.1l-25.9,29.2H191.4z"/>
		<path style="fill:#fff;" d="M263.3,143.7V166h-58.6v-19.1l25.9-29.3h-24.2V95.4h55.5v19.1L236,143.7H263.3z"/>
		<path style="fill:#fff;" d="M340.6,120.7c0,20.9,0,45.4,0,45.4h-24.7v-6.9c-4.4,5.9-11.6,9.1-20.8,9.1c-4.1,0-20.8-2.7-21.4-20.8
			c-0.4-15.3,9.9-22.2,20.2-24c6.6-1.2,16.9-1.8,21.9-1.9c0-2.9-1.6-9.3-10.3-9.3c-9.6,0-18.3,4-21.6,5.7l-6.8-16.1
			c5.3-3.7,17.7-9,31.5-9C324.4,93,340.6,98.9,340.6,120.7z M315.8,142.2c0-2.2,0-7.7,0-7.7s-9.9-0.4-14.1,2.6
			c-5.3,3.7-3.5,12.5,5,12.5C313.8,149.7,315.8,145.1,315.8,142.2z"/>
	</g>
	<rect x="358.8" y="152.1" width="463.5" height="13.9"/>
	<g>
		<path style="fill:#EB0029;" d="M419.7,161.2c18.2-3.5,36.8-5.2,55.8-4.9c19,0.2,37.2,2.3,54.5,6.3c17.3,4,33.2,9.6,47.4,17
			c14.3,7.4,25.7,16.3,34.3,26.9c3.7,4.6,5.5,8.1,5.3,10.5c-0.2,2.4-2,1.9-5.3-1.6c-10.3-12.1-23.8-22-40.5-29.8
			c-16.7-7.8-35-12.9-55-15.3c-20-2.4-40.8-1.8-62.6,1.8c-21.7,3.6-42.8,10.8-63.3,21.6c-2.6,1.5-5.3,3.1-8.1,4.6
			c-2.7,1.5-5.5,2.7-8.2,3.5c-2.7,0.8-5.4,0.9-8.1,0.5c-2.6-0.4-5.3-1.9-7.9-4.3c-2.4-2-3.8-3.7-4.1-5.1c-0.3-1.4-0.1-2.8,0.7-4.1
			c0.8-1.3,2-2.6,3.8-4c1.8-1.3,3.6-2.6,5.6-4c9.9-8.8,19.8-18.8,29.8-30.1c10-11.3,20.1-22.9,30.5-34.8
			c10.3-11.9,21-23.7,32.1-35.6C467.5,68.3,479,57.4,491,47.3c12-10.1,24.6-18.9,37.9-26.4c13.3-7.5,27.4-12.8,42.3-16.1
			c7.9-1.5,15-2,21.4-1.3c6.4,0.7,11.5,1.8,15.5,3.3c4,1.5,6.5,3,7.6,4.4c1.1,1.4,0.2,2-2.6,1.8c-13.8-0.4-27,1.9-39.5,6.9
			C561,25,549,31.7,537.5,40c-11.5,8.3-22.6,17.9-33.1,28.7c-10.5,10.8-20.6,21.7-30.3,32.9c-9.7,11.2-19.1,22-28.2,32.4
			C436.7,144.5,428,153.6,419.7,161.2z"/>
		<path style="fill:#EB0029;" d="M607.6,109.8c4.2-3.1,6.5-4.1,6.9-3c0.4,1.1-0.3,3.2-2.3,6.3c-2,3.3-4.8,7.1-8.4,11.5
			c-3.6,4.4-7.6,8.6-12,12.5s-9,7.5-13.8,10.5c-4.8,3.1-9.3,4.9-13.5,5.6c-2.9,0.4-6.6-0.3-11.2-2.1c-4.6-1.9-9.1-4.6-13.3-8.1
			c-4.3-3.5-7.9-7.6-10.7-12.2s-3.8-9.3-3-14.2c0.7-4,2.3-7.7,4.9-11.4c2.6-3.6,5.6-6.8,8.9-9.6c3.3-2.7,6.6-4.9,10-6.6
			c3.4-1.6,6.3-2.5,8.7-2.5c2,0,4.2,0.5,6.8,1.6c2.5,1.1,4.8,2.5,6.9,4.3c2.1,1.8,3.7,3.8,4.9,6.1c1.2,2.3,1.7,4.7,1.5,7.1
			c-0.4,2.4-2.1,5.2-4.9,8.4c-2.9,3.2-6,6.3-9.6,9.4c-4,3.5-8.6,7.1-13.8,10.9c4.8,1.3,12.6-0.2,23.2-4.6
			C584.5,125.5,595.8,118.8,607.6,109.8z M568.8,103.5c-0.9-0.7-2.9-0.2-6.1,1.5c-3.2,1.6-6.3,3.8-9.4,6.4s-5.7,5.5-7.7,8.7
			c-2.1,3.2-2.6,5.9-1.5,8.1c1.3-0.7,3.5-2.2,6.4-4.6c3-2.4,5.9-5.1,8.9-7.9c3-2.9,5.4-5.4,7.4-7.7
			C568.8,105.7,569.4,104.2,568.8,103.5z"/>
		<path style="fill:#EB0029;" d="M710.1,77.5c-7.7,0.2-15.3,0.4-22.9,0.5c-7.6,0.1-15,0.4-22.2,0.8c-2.4,1.8-5.5,4.4-9.2,7.9
			c-3.7,3.5-7.6,7.4-11.5,11.5c-4,4.2-7.9,8.6-11.7,13.2c-3.8,4.6-7.1,8.9-9.7,12.8s-4.5,7.4-5.4,10.4c-1,3-0.7,5,0.8,6.1
			c1.3,0.9,4.4-0.1,9.2-3c4.8-2.9,10-6.3,15.6-10.2c5.6-4,11-7.8,16.1-11.7c5.2-3.8,8.7-6.3,10.7-7.4c4-2.6,6.8-3.2,8.6-1.6
			c1.8,1.5,1.6,3.6-0.3,6.3c-1.1,1.3-3.7,4.1-7.9,8.4c-4.2,4.3-9.1,8.7-14.7,13.2c-5.6,4.5-11.4,8.5-17.5,12
			c-6,3.5-11.3,5.3-15.6,5.3c-9,0-14.9-2.5-17.6-7.4c-2.7-4.9-3.6-11.1-2.5-18.4c1.1-7.4,3.7-15.3,7.9-23.7
			c4.2-8.5,8.9-16.1,14.2-22.9c-10.3-2.2-14.3-4.6-11.9-7.2c1.1-1.1,8-1.9,20.8-2.3c3.5-3.1,6.8-5.6,9.9-7.6c3.1-2,6-3,8.9-3
			c2.6,0,5.5,1,8.6,3.1c3.1,2.1,5.5,4.4,7.2,7.1c6.4,0,13.1,0,20.1,0c7,0,14.3-0.1,21.7-0.3L710.1,77.5z M694.6,69.9
			c3.5-3.1,6.8-5.6,9.9-7.6c3.1-2,6-3,8.9-3c2.6,0,5.5,1,8.6,3.1c3.1,2.1,5.5,4.4,7.2,7.1c11.2,0,23.2-0.1,35.9-0.3
			c12.7-0.2,25.7-0.5,38.9-1c16.7-0.4,32-1.1,45.8-2c13.8-0.9,26-1.8,36.4-2.6c10.4-0.9,18.9-1.6,25.4-2.3c6.5-0.7,10.7-1,12.7-1
			c3.7,0,7.8,0.6,12.4,1.8c4.5,1.2,8.6,2.6,12.4,4.3c3.7,1.6,6.6,3.4,8.7,5.3c2.1,1.9,2.5,3.6,1.1,5.1c-0.7,0.9-4.4,1.4-11.2,1.5
			c-6.8,0.1-15.8,0.1-26.9,0c-11.1-0.1-24.1-0.3-38.9-0.5c-14.8-0.2-30.8-0.4-47.8-0.5c-17-0.1-34.7-0.1-53,0
			c-18.3,0.1-36.6,0.6-54.9,1.5c-2.4,1.8-5.5,4.4-9.2,7.9c-3.7,3.5-7.6,7.4-11.5,11.5c-4,4.2-7.9,8.6-11.7,13.2
			c-3.8,4.6-7.1,8.9-9.7,12.8s-4.4,7.4-5.4,10.4c-1,3-0.7,5,0.8,6.1c1.3,0.9,4.4-0.1,9.2-3c4.8-2.9,10-6.3,15.6-10.2
			s11-7.8,16.1-11.7c5.2-3.8,8.7-6.3,10.7-7.4c4-2.6,6.8-3.2,8.6-1.6c1.8,1.5,1.7,3.6-0.3,6.3c-1.1,1.3-3.7,4.1-7.9,8.4
			c-4.2,4.3-9.1,8.7-14.7,13.2c-5.6,4.5-11.4,8.5-17.5,12c-6,3.5-11.3,5.3-15.6,5.3c-9,0-14.9-2.5-17.6-7.4
			c-2.7-4.9-3.6-11.1-2.5-18.4c1.1-7.4,3.7-15.3,7.9-23.7c4.2-8.5,8.9-16.1,14.2-22.9L694.6,69.9z"/>
		<path style="fill:#EB0029;" d="M825.4,108.8c3.1-2.9,5.5-3.6,7.4-2.1c1.9,1.4,1.3,4-1.8,7.7c-1.8,2-4.2,4.9-7.2,8.7
			c-3.1,3.8-6.3,7.7-9.6,11.7c-3.3,4-6.6,7.5-9.9,10.5c-3.3,3.1-6,4.8-8.2,5.3c-2.9,0.7-6.9,0.2-12-1.3c-5.2-1.5-9.6-3.8-13.3-6.9
			c-2.9,2-5.6,3.9-8.2,5.8c-2.6,1.9-5.3,3.2-7.9,4.1c-2.4,0.4-5.4,0.3-8.9-0.3c-3.5-0.7-7-1.9-10.4-3.8c-3.4-1.9-6.4-4.1-9.1-6.8
			s-4.4-5.7-5.3-9.2c-0.9-3.7,0.1-8.2,2.8-13.3c2.7-5.2,6.1-10,10-14.7c4-4.6,8.1-8.6,12.4-12c4.3-3.4,7.6-5.2,10-5.4
			c1.5-0.2,3.5-0.1,5.8,0.3c2.3,0.4,4.6,1.2,6.9,2.3c2.3,1.1,4.4,2.4,6.3,4c1.9,1.5,3.1,3.3,3.8,5.3c3.1-2.6,5.7-3.8,7.9-3.6
			c1.8,0.4,3.6,1,5.6,1.6c2,0.7,3.8,1.4,5.4,2.3c1.6,0.9,3,2,4.1,3.3c1.1,1.3,1.5,2.7,1.3,4.3c0,1.8-0.9,4.1-2.6,7.1
			c-1.8,3-3.6,6-5.6,9.1c-2,3.1-3.6,5.8-4.9,8.2c-1.3,2.4-1.5,4-0.7,4.6c0.7,0.4,2.1-0.1,4.4-1.5c2.3-1.4,5.1-3.4,8.4-5.9
			c3.3-2.5,7-5.4,11-8.7C817.4,116,821.4,112.5,825.4,108.8z M742.7,140.4c2.4,1.3,5.4,0.6,9.1-2.1c3.6-2.7,7.1-6.2,10.4-10.4
			c3.3-4.2,6.1-8.5,8.4-12.8c2.3-4.4,3.5-7.7,3.5-9.9c-0.9-2-2.4-2.5-4.6-1.6c-2.2,0.9-4.6,2.5-7.2,4.9c-2.6,2.4-5.3,5.4-8.1,8.9
			c-2.8,3.5-5.1,6.9-7.1,10c-2,3.2-3.5,6-4.4,8.6C741.6,138.5,741.6,140,742.7,140.4z"/>
	</g>
</g>
</svg>
