<svg xmlns="http://www.w3.org/2000/svg" viewBox="0 0 100 22.44"><defs><style>.a24d272d-1848-4c15-8fb0-ee2b8f7ada78{fill:#fff;}.f17457ad-6fd2-4bbf-8097-b135d62d4711{fill:#ea0029;}</style></defs><title>pizzaletta</title><g id="04f06fce-2dab-4aa3-b43b-94cbf61aff18" data-name="Layer 2"><g id="74e872d7-3a9d-4af8-90b0-1a49bde89e09" data-name="Layer 2"><path class="a24d272d-1848-4c15-8fb0-ee2b8f7ada78" d="M8.61,10a3.88,3.88,0,0,1-4.19,3.83H3V17H0V6.24H4.42A3.87,3.87,0,0,1,8.61,10ZM6,10c0-.67-.39-1.32-1.65-1.32H3v2.66H4.31C5.57,11.38,6,10.72,6,10Z"/><path class="a24d272d-1848-4c15-8fb0-ee2b8f7ada78" d="M12.27,9.61V17H9.69V9.61ZM9.7,7.48A1.28,1.28,0,1,1,11,8.75,1.28,1.28,0,0,1,9.7,7.48Z"/><path class="a24d272d-1848-4c15-8fb0-ee2b8f7ada78" d="M19.91,14.65V17H13.8V15l2.7-3.06H14V9.61h5.78v2l-2.7,3Z"/><path class="a24d272d-1848-4c15-8fb0-ee2b8f7ada78" d="M27.4,14.65V17H21.29V15L24,11.93H21.48V9.61h5.79v2l-2.71,3Z"/><path class="a24d272d-1848-4c15-8fb0-ee2b8f7ada78" d="M35.47,12.25V17H32.89v-.72a2.58,2.58,0,0,1-2.17.95,2.21,2.21,0,0,1-2.23-2.16,2.34,2.34,0,0,1,2.11-2.5,16.64,16.64,0,0,1,2.29-.2,1,1,0,0,0-1.08-1,5.13,5.13,0,0,0-2.26.6l-.7-1.68a6.31,6.31,0,0,1,3.28-.93C33.78,9.37,35.47,10,35.47,12.25ZM32.89,14.5v-.8a3.07,3.07,0,0,0-1.48.27.72.72,0,0,0,.52,1.31C32.67,15.28,32.89,14.8,32.89,14.5Z"/><rect class="a24d272d-1848-4c15-8fb0-ee2b8f7ada78" x="37.36" y="15.53" width="48.32" height="1.45"/><path class="f17457ad-6fd2-4bbf-8097-b135d62d4711" d="M43.71,16.48A29.58,29.58,0,0,1,49.53,16a27,27,0,0,1,5.69.65,20.61,20.61,0,0,1,4.94,1.77,11,11,0,0,1,3.57,2.8c.39.48.58.85.55,1.1s-.2.19-.55-.17A12.18,12.18,0,0,0,59.51,19a18.52,18.52,0,0,0-5.74-1.6,22.82,22.82,0,0,0-6.52.19,21.87,21.87,0,0,0-6.6,2.25l-.84.48a3.74,3.74,0,0,1-.86.36,1.84,1.84,0,0,1-.84,0,1.59,1.59,0,0,1-.82-.44,1.16,1.16,0,0,1-.43-.54.55.55,0,0,1,.07-.43,1.62,1.62,0,0,1,.39-.41l.59-.41A37,37,0,0,0,41,15.37q1.58-1.77,3.18-3.63c1.08-1.23,2.19-2.47,3.35-3.71A43,43,0,0,1,51.15,4.6a25.19,25.19,0,0,1,4-2.75A15.71,15.71,0,0,1,59.51.17,7.6,7.6,0,0,1,61.74,0a6.41,6.41,0,0,1,1.62.34,2,2,0,0,1,.79.47c.11.15,0,.21-.28.19a9.93,9.93,0,0,0-4.12.72A17.9,17.9,0,0,0,56,3.84a27.35,27.35,0,0,0-3.45,3q-1.65,1.68-3.16,3.44l-2.94,3.38A35.79,35.79,0,0,1,43.71,16.48Z"/><path class="f17457ad-6fd2-4bbf-8097-b135d62d4711" d="M63.31,11.12c.43-.32.67-.43.72-.31s0,.33-.24.65a11.06,11.06,0,0,1-.88,1.2A11.84,11.84,0,0,1,61.66,14a11.44,11.44,0,0,1-1.44,1.1,3.87,3.87,0,0,1-1.41.58,2.33,2.33,0,0,1-1.17-.22,5.6,5.6,0,0,1-1.39-.84,5.19,5.19,0,0,1-1.12-1.27,2.06,2.06,0,0,1-.31-1.48,2.79,2.79,0,0,1,.52-1.19,5.15,5.15,0,0,1,.93-1,4.93,4.93,0,0,1,1-.69,2.23,2.23,0,0,1,.91-.26,1.91,1.91,0,0,1,.71.17,3.35,3.35,0,0,1,.72.45,2,2,0,0,1,.51.64,1.28,1.28,0,0,1,.16.73,1.94,1.94,0,0,1-.52.88,11.48,11.48,0,0,1-1,1,16,16,0,0,1-1.45,1.13,4.23,4.23,0,0,0,2.43-.48A16.12,16.12,0,0,0,63.31,11.12Zm-4.06-.66c-.09-.06-.3,0-.63.16a4.88,4.88,0,0,0-1,.67,4.34,4.34,0,0,0-.81.91.81.81,0,0,0-.15.84,5.18,5.18,0,0,0,.67-.48c.31-.25.62-.53.92-.82s.57-.57.78-.81S59.32,10.53,59.25,10.46Z"/><path class="f17457ad-6fd2-4bbf-8097-b135d62d4711" d="M74,7.75l-2.39,0c-.79,0-1.56,0-2.32.09a11.37,11.37,0,0,0-1,.82q-.58.55-1.2,1.2c-.41.44-.82.9-1.22,1.38a15.17,15.17,0,0,0-1,1.34,4.39,4.39,0,0,0-.57,1.08c-.1.31-.07.52.09.64s.45,0,1-.31,1-.66,1.63-1.07,1.14-.82,1.68-1.22A11.16,11.16,0,0,1,69.8,11c.41-.28.71-.33.89-.17s.17.38,0,.65-.39.43-.83.88a16.63,16.63,0,0,1-1.53,1.37A13.68,13.68,0,0,1,66.48,15a3.34,3.34,0,0,1-1.63.55c-.94,0-1.55-.25-1.84-.77a3,3,0,0,1-.25-1.92,8.56,8.56,0,0,1,.82-2.48A14.32,14.32,0,0,1,65.06,8c-1.08-.23-1.49-.48-1.24-.76A6.91,6.91,0,0,1,66,7a8.91,8.91,0,0,1,1-.79,1.69,1.69,0,0,1,.92-.31,1.61,1.61,0,0,1,.9.33,2.65,2.65,0,0,1,.75.74h2.1c.73,0,1.49,0,2.26,0ZM72.37,7a9.85,9.85,0,0,1,1-.79,1.69,1.69,0,0,1,.93-.31,1.64,1.64,0,0,1,.9.33,2.65,2.65,0,0,1,.75.74c1.17,0,2.42,0,3.74,0s2.68,0,4.06-.1q2.61-.08,4.77-.21c1.44-.09,2.71-.18,3.8-.27L95,6.07C95.67,6,96.11,6,96.31,6a5.3,5.3,0,0,1,1.29.19,9.7,9.7,0,0,1,1.29.45,3.57,3.57,0,0,1,.91.55c.22.19.26.37.12.53s-.46.15-1.17.16H96l-4,0c-1.55,0-3.21,0-5-.06s-3.62,0-5.53,0-3.82.07-5.72.16a11.37,11.37,0,0,0-1,.82q-.58.55-1.2,1.2c-.41.44-.82.9-1.22,1.38a15.17,15.17,0,0,0-1,1.34,4.39,4.39,0,0,0-.57,1.08c-.1.31-.08.52.08.64s.46,0,1-.31,1-.66,1.63-1.07,1.14-.82,1.68-1.22A11.16,11.16,0,0,1,76.19,11c.41-.28.71-.33.89-.17s.17.38,0,.65-.39.43-.83.88a16.63,16.63,0,0,1-1.53,1.37A13.68,13.68,0,0,1,72.87,15a3.34,3.34,0,0,1-1.63.55c-.94,0-1.55-.25-1.84-.77a3,3,0,0,1-.25-1.92A8.27,8.27,0,0,1,70,10.34,13.69,13.69,0,0,1,71.45,8Z"/><path class="f17457ad-6fd2-4bbf-8097-b135d62d4711" d="M86,11c.32-.29.58-.37.77-.22s.13.42-.19.81c-.18.2-.43.51-.75.91s-.65.81-1,1.22a12.3,12.3,0,0,1-1,1.1,2,2,0,0,1-.86.55,2.72,2.72,0,0,1-1.25-.14,3.91,3.91,0,0,1-1.39-.72c-.3.2-.59.4-.86.6a3.29,3.29,0,0,1-.83.43,2.69,2.69,0,0,1-.92,0,3.69,3.69,0,0,1-1.08-.39,4.21,4.21,0,0,1-1-.71,2,2,0,0,1-.55-1,2.06,2.06,0,0,1,.29-1.39,8.66,8.66,0,0,1,1-1.53,8.89,8.89,0,0,1,1.29-1.25,2.33,2.33,0,0,1,1-.57,1.86,1.86,0,0,1,.6,0,2.54,2.54,0,0,1,.72.24,2.87,2.87,0,0,1,.65.41,1.17,1.17,0,0,1,.4.55A1.17,1.17,0,0,1,82,9.57c.18,0,.38.1.58.17a3.76,3.76,0,0,1,.57.24,1.5,1.5,0,0,1,.43.35.53.53,0,0,1,.14.44,1.53,1.53,0,0,1-.28.74c-.18.31-.37.63-.58,1s-.38.6-.52.86-.16.41-.06.48.22,0,.46-.16.53-.35.88-.62l1.15-.91C85.18,11.77,85.6,11.4,86,11Zm-8.62,3.3c.25.14.57.06.94-.22A6.52,6.52,0,0,0,79.42,13a9.54,9.54,0,0,0,.87-1.34,2.56,2.56,0,0,0,.36-1,.33.33,0,0,0-.48-.18,2.76,2.76,0,0,0-.75.52,7.18,7.18,0,0,0-.85.93c-.28.36-.53.71-.74,1a5.93,5.93,0,0,0-.46.9C77.27,14.11,77.27,14.27,77.39,14.31Z"/></g></g></svg>